SplineFontDB: 3.2
FontName: Kame-Book
FullName: Kame Book
FamilyName: Kame
Weight: Book
Copyright: Copyright (c) 2020, Romain Goetz
UComments: "2020-3-20: Created with FontForge (http://fontforge.org)"
Version: 002.000
ItalicAngle: 0
UnderlinePosition: -100
UnderlineWidth: 50
Ascent: 800
Descent: 200
InvalidEm: 0
LayerCount: 2
Layer: 0 0 "Back" 1
Layer: 1 0 "Fore" 0
XUID: [1021 211 -755066739 6491469]
FSType: 0
OS2Version: 0
OS2_WeightWidthSlopeOnly: 0
OS2_UseTypoMetrics: 1
CreationTime: 1584661111
ModificationTime: 1585577041
PfmFamily: 17
TTFWeight: 400
TTFWidth: 5
LineGap: 90
VLineGap: 0
OS2TypoAscent: 0
OS2TypoAOffset: 1
OS2TypoDescent: 0
OS2TypoDOffset: 1
OS2TypoLinegap: 90
OS2WinAscent: 0
OS2WinAOffset: 1
OS2WinDescent: 0
OS2WinDOffset: 1
HheadAscent: 0
HheadAOffset: 1
HheadDescent: 0
HheadDOffset: 1
OS2Vendor: 'PfEd'
Lookup: 1 0 0 "Single Substitution in Latin lookup 0" { "Single Substitution in Latin lookup 0-1"  } ['    ' ('DFLT' <'dflt' > 'latn' <'dflt' > ) 'cv00' ('DFLT' <'dflt' > 'latn' <'dflt' > ) ]
Lookup: 4 0 1 "'liga' Standard Ligatures in Latin lookup 0" { "'liga' Standard Ligatures in Latin lookup 0-1"  } ['liga' ('DFLT' <'dflt' > 'latn' <'dflt' > ) ]
Lookup: 258 0 0 "'kern' Horizontal Kerning in Latin lookup 0" { "'kern' Horizontal Kerning in Latin lookup 0-1" [10,0,2] "'kern' Horizontal Kerning in Latin lookup 0-2" [150,15,0] } ['kern' ('DFLT' <'dflt' > 'latn' <'dflt' > ) ]
MarkAttachClasses: 1
DEI: 91125
KernClass2: 1 1 "'kern' Horizontal Kerning in Latin lookup 0-2"
 0 {}
KernClass2: 42 32 "'kern' Horizontal Kerning in Latin lookup 0-1"
 124 A Agrave Aacute Acircumflex Atilde Adieresis Aring Amacron Abreve uni01CD uni01DE uni01E0 Aringacute uni0200 uni0202 uni0226
 1 B
 47 C Ccedilla Cacute Ccircumflex Cdotaccent Ccaron
 155 D O Eth Ograve Oacute Ocircumflex Otilde Dcaron Dcroat Omacron Obreve Ohungarumlaut uni01D1 uni01EA uni01EC uni020C uni020E uni022A uni022C uni022E uni0230

StartChar: exclam
Encoding: 1 33 0
Width: 204
VWidth: 0
Flags: HMW
LayerCount: 2
Fore
SplineSet
71 220 m 1
 62 390 53 550 43 720 c 1
 125 720 l 1
 130 535 l 1
 113 220 l 1
 71 220 l 1
EndSplineSet
Refer: 1 46 N 0.896552 0 0 1 4.13793 0 2
Validated: 1
EndChar

StartChar: period
Encoding: 14 46 1
Width: 184
VWidth: 0
Flags: MW
LayerCount: 2
Fore
SplineSet
92 -10 m 0
 63 -10 40 13 40 42 c 0
 40 71 63 94 92 94 c 0
 121 94 144 71 144 42 c 0
 144 13 121 -10 92 -10 c 0
EndSplineSet
Validated: 1
EndChar

StartChar: numbersign
Encoding: 3 35 3
Width: 620
VWidth: 0
Flags: MW
LayerCount: 2
Fore
SplineSet
418 203 m 1
 376 0 l 1
 304 0 l 1
 360 218 l 1
 210 203 l 1
 168 0 l 1
 96 0 l 1
 152 218 l 1
 40 203 l 1
 40 270 l 1
 152 270 l 1
 206 467 l 1
 40 453 l 1
 40 519 l 1
 204 519 l 1
 248 719 l 1
 320 719 l 1
 276 519 l 1
 412 519 l 1
 456 719 l 1
 528 719 l 1
 486 519 l 1
 580 519 l 1
 580 453 l 1
 472 453 l 1
 432 270 l 1
 580 270 l 1
 580 203 l 1
 418 203 l 1
262 453 m 1
 224 270 l 1
 362 270 l 1
 414 467 l 1
 262 453 l 1
EndSplineSet
Validated: 1
EndChar

StartChar: dollar
Encoding: 4 36 4
Width: 470
VWidth: 0
Flags: MW
LayerCount: 2
Fore
SplineSet
370 644 m 1
 334 664 302 696 258 696 c 0
 243 696 226 692 210 685 c 1
 242 420 l 1
 300 391 364 364 395 316 c 0
 418 282 430 250 430 210 c 0
 430 104 371 34 293 5 c 1
 300 -54 l 1
 261 -59 l 1
 254 -5 l 1
 238 -8 222 -10 206 -10 c 0
 152 -10 98 -1 50 27 c 1
 70 94 l 1
 110 69 152 27 211 27 c 0
 224 27 237 29 249 33 c 1
 210 354 l 1
 174 371 137 387 111 408 c 0
 70 441 40 488 40 542 c 0
 40 634 94 690 166 715 c 1
 160 765 l 1
 199 769 l 1
 205 725 l 1
 223 728 241 730 260 730 c 0
 308 730 354 724 395 709 c 1
 370 644 l 1
253 332 m 1
 287 51 l 1
 296 57 303 63 310 70 c 0
 341 101 352 157 352 199 c 0
 352 266 307 303 253 332 c 1
199 442 m 1
 172 664 l 1
 160 655 150 645 144 636 c 0
 127 612 120 576 120 547 c 0
 120 499 154 468 199 442 c 1
EndSplineSet
Validated: 1
EndChar

StartChar: percent
Encoding: 5 37 5
Width: 656
VWidth: 0
Flags: MW
LayerCount: 2
Fore
SplineSet
390 720 m 1
 458 720 l 1
 263 0 l 1
 197 0 l 1
 390 720 l 1
166 688 m 0
 244 688 285 614 285 542 c 0
 285 456 226 400 164 400 c 0
 101 400 40 458 40 543 c 0
 40 615 85 688 166 688 c 0
56 541 m 0
 56 488 112 457 164 457 c 0
 225 457 270 504 270 544 c 0
 270 582 228 628 168 628 c 0
 114 628 56 596 56 541 c 0
497 320 m 0
 575 320 616 246 616 174 c 0
 616 88 557 32 495 32 c 0
 431 32 372 90 372 175 c 0
 372 247 417 320 497 320 c 0
387 173 m 0
 387 120 444 89 495 89 c 0
 557 89 602 136 602 176 c 0
 602 215 560 260 499 260 c 0
 445 260 387 228 387 173 c 0
EndSplineSet
Validated: 1
EndChar

StartChar: ampersand
Encoding: 6 38 6
Width: 663
VWidth: 0
Flags: MW
LayerCount: 2
Fore
SplineSet
585 26 m 0
 598 26 611 29 623 31 c 1
 623 0 l 1
 551 0 l 2
 537 0 526 3 518 9 c 0
 493 26 467 64 446 92 c 1
 394 24 330 -10 254 -10 c 0
 190 -10 137 15 102 48 c 0
 67 79 40 128 40 190 c 0
 40 237 55 269 78 299 c 0
 112 345 156 378 209 416 c 1
 170 460 110 514 110 593 c 0
 110 662 156 703 209 720 c 0
 226 726 253 730 270 730 c 0
 356 730 426 681 426 595 c 0
 426 491 333 460 274 410 c 1
 426 226 l 1
 451 291 467 339 500 388 c 0
 509 402 519 414 530 423 c 1
 556 414 587 405 622 405 c 1
 622 350 l 1
 588 350 557 363 530 373 c 1
 512 300 496 234 479 161 c 1
 499 132 520 92 538 63 c 0
 549 45 561 26 585 26 c 0
390 164 m 1
 234 383 l 1
 192 353 163 322 148 289 c 0
 132 257 124 224 124 192 c 0
 124 103 170 24 256 24 c 0
 330 24 378 97 390 164 c 1
174 596 m 0
 174 528 215 486 252 444 c 1
 294 474 336 501 354 551 c 0
 359 564 361 579 361 595 c 0
 361 646 333 686 299 705 c 0
 287 711 277 714 266 714 c 0
 237 714 214 695 201 677 c 0
 186 657 174 629 174 596 c 0
EndSplineSet
Validated: 1
EndChar

StartChar: quotesingle
Encoding: 7 39 7
Width: 143
VWidth: 0
Flags: MW
LayerCount: 2
Fore
SplineSet
40 550 m 1
 40 616 l 1
 43 720 l 1
 103 720 l 1
 76 550 l 1
 40 550 l 1
EndSplineSet
Validated: 1
EndChar

StartChar: parenleft
Encoding: 8 40 8
Width: 343
VWidth: 0
Flags: HMW
LayerCount: 2
Fore
SplineSet
303 -79 m 5
 272 -101 l 5
 197 -49 139 12 99 81 c 4
 60 151 40 224 40 300 c 4
 40 378 60 451 99 519 c 4
 138 586 195 647 272 700 c 5
 293 669 l 5
 232 619 187 566 159 510 c 4
 134 457 118 380 118 303 c 4
 118 302 118 302 118 301 c 4
 118 300 118 299 118 299 c 4
 118 221 134 139 161 87 c 4
 192 26 250 -35 303 -79 c 5
EndSplineSet
EndChar

StartChar: parenright
Encoding: 9 41 9
Width: 343
VWidth: 0
Flags: HMW
LayerCount: 2
Fore
SplineSet
40 -79 m 5
 93 -35 151 26 182 87 c 4
 209 139 225 221 225 299 c 4
 225 299 225 300 225 301 c 4
 225 302 225 302 225 303 c 4
 225 380 209 457 184 510 c 4
 156 566 111 619 50 669 c 5
 71 700 l 5
 148 647 205 586 244 519 c 4
 283 451 303 378 303 300 c 4
 303 224 283 151 244 81 c 4
 204 12 146 -49 71 -101 c 5
 40 -79 l 5
EndSplineSet
EndChar

StartChar: asterisk
Encoding: 10 42 10
Width: 368
VWidth: 0
Flags: MW
LayerCount: 2
Fore
SplineSet
303 535 m 1
 202 610 l 1
 207 482 l 1
 161 482 l 1
 166 610 l 1
 64 534 l 1
 40 575 l 1
 154 642 l 1
 40 709 l 1
 64 750 l 1
 166 673 l 1
 161 800 l 1
 207 800 l 1
 202 674 l 1
 303 750 l 1
 328 709 l 1
 216 642 l 1
 328 575 l 1
 303 535 l 1
EndSplineSet
Validated: 1
EndChar

StartChar: plus
Encoding: 11 43 11
Width: 500
VWidth: 0
Flags: MW
LayerCount: 2
Fore
SplineSet
285 387 m 1
 460 387 l 1
 460 326 l 1
 285 326 l 1
 285 150 l 1
 221 150 l 1
 221 326 l 1
 40 326 l 1
 40 387 l 1
 221 387 l 1
 221 570 l 1
 285 570 l 1
 285 387 l 1
EndSplineSet
Validated: 1
EndChar

StartChar: comma
Encoding: 12 44 12
Width: 187
VWidth: 0
Flags: MW
LayerCount: 2
Fore
SplineSet
93 94 m 0
 125 94 147 62 147 28 c 0
 147 -26 116 -70 55 -101 c 1
 44 -81 l 1
 71 -69 89 -44 89 -10 c 1
 63 -8 40 14 40 44 c 0
 40 72 64 94 93 94 c 0
EndSplineSet
Validated: 1
EndChar

StartChar: hyphen
Encoding: 13 45 13
Width: 374
VWidth: 0
Flags: HMW
LayerCount: 2
Fore
SplineSet
80 295 m 1
 80 353 l 1
 284 353 l 1
 284 295 l 1
 80 295 l 1
EndSplineSet
Validated: 1
EndChar

StartChar: slash
Encoding: 15 47 14
Width: 341
VWidth: 0
Flags: MW
LayerCount: 2
Fore
SplineSet
233 720 m 1
 301 720 l 1
 106 0 l 1
 40 0 l 1
 233 720 l 1
EndSplineSet
Validated: 1
EndChar

StartChar: zero
Encoding: 16 48 15
Width: 590
VWidth: 0
Flags: HMW
LayerCount: 2
Fore
SplineSet
530 356 m 2
 530 143 459 -10 296 -10 c 3
 109 -10 63 181 60 356 c 1
 60 530 114 730 296 730 c 3
 498 730 530 531 530 356 c 2
452 356 m 0
 452 515 431 690 296 690 c 3
 171 690 138 515 138 356 c 0
 138 201 158 30 297 30 c 3
 432 30 452 209 452 356 c 0
EndSplineSet
Validated: 1
EndChar

StartChar: one
Encoding: 17 49 16
Width: 280
VWidth: 0
Flags: MW
LayerCount: 2
Fore
SplineSet
40 0 m 1
 40 40 l 1
 100 33 l 1
 100 529 l 1
 94 649 l 1
 40 639 l 1
 40 679 l 1
 170 730 l 1
 180 528 l 1
 172 30 l 1
 240 40 l 1
 240 0 l 1
 40 0 l 1
EndSplineSet
Validated: 1
EndChar

StartChar: two
Encoding: 18 50 17
Width: 474
VWidth: 0
Flags: MW
LayerCount: 2
Fore
SplineSet
51 690 m 1
 95 709 153 730 210 730 c 2
 309 730 379 682 408 612 c 0
 419 587 424 560 424 530 c 0
 424 410 348 311 282 244 c 0
 226 185 163 122 106 59 c 1
 434 73 l 1
 434 0 l 1
 40 0 l 1
 40 60 l 1
 136 167 204 238 278 342 c 0
 309 384 355 461 355 527 c 0
 355 621 293 683 197 683 c 0
 176 683 155 668 138 658 c 0
 114 643 92 629 60 618 c 1
 51 690 l 1
EndSplineSet
Validated: 1
EndChar

StartChar: three
Encoding: 19 51 18
Width: 517
VWidth: 0
Flags: MW
LayerCount: 2
Fore
SplineSet
477 203 m 0
 477 80 355 -10 220 -10 c 0
 155 -10 92 10 40 48 c 1
 64 116 l 1
 104 85 151 26 215 26 c 0
 320 26 397 107 397 196 c 0
 397 300 285 373 200 376 c 1
 210 413 l 1
 212 413 215 413 217 413 c 0
 297 413 358 465 358 544 c 0
 358 608 328 685 255 690 c 1
 201 683 152 642 108 614 c 1
 82 681 l 1
 130 716 194 730 255 730 c 0
 360 730 442 660 442 551 c 0
 442 466 388 423 318 400 c 1
 405 379 477 293 477 203 c 0
EndSplineSet
Validated: 1
EndChar

StartChar: four
Encoding: 20 52 19
Width: 550
VWidth: 0
Flags: MW
LayerCount: 2
Fore
SplineSet
350 170 m 1
 40 170 l 1
 40 230 l 1
 340 720 l 1
 420 720 l 1
 420 220 l 1
 510 226 l 1
 510 170 l 1
 420 170 l 1
 420 30 l 1
 490 40 l 1
 490 0 l 1
 280 0 l 1
 280 40 l 1
 350 30 l 1
 350 170 l 1
350 620 m 1
 100 220 l 1
 350 220 l 1
 350 620 l 1
EndSplineSet
Validated: 1
EndChar

StartChar: five
Encoding: 21 53 20
Width: 487
VWidth: 0
Flags: MW
LayerCount: 2
Fore
SplineSet
128 430 m 1
 155 436 191 438 223 438 c 0
 290 438 343 418 383 377 c 0
 418 340 447 290 447 222 c 0
 447 90 329 -12 208 -12 c 0
 155 -12 80 8 40 26 c 1
 55 97 l 1
 100 75 148 24 208 24 c 0
 301 24 372 126 372 222 c 0
 372 317 309 390 217 390 c 0
 177 390 164 373 137 350 c 1
 81 376 l 1
 81 720 l 1
 377 720 l 1
 377 650 l 1
 147 660 l 1
 128 430 l 1
EndSplineSet
Validated: 1
EndChar

StartChar: six
Encoding: 22 54 21
Width: 547
VWidth: 0
Flags: MW
LayerCount: 2
Fore
SplineSet
131 331 m 1
 167 356 221 374 281 374 c 0
 407 374 507 302 507 178 c 0
 507 116 477 73 443 43 c 0
 405 11 346 -10 279 -10 c 0
 210 -10 155 11 117 43 c 0
 60 92 40 181 40 276 c 0
 40 377 63 484 90 556 c 0
 128 656 202 730 313 730 c 0
 369 730 418 721 458 704 c 1
 445 644 l 1
 402 658 367 698 316 698 c 0
 282 698 254 681 234 664 c 0
 185 624 151 573 140 493 c 0
 132 439 132 387 131 331 c 1
412 178 m 0
 412 262 359 351 275 351 c 0
 190 351 143 266 143 181 c 0
 143 95 197 12 281 12 c 0
 361 12 412 95 412 178 c 0
EndSplineSet
Validated: 1
EndChar

StartChar: seven
Encoding: 23 55 22
Width: 400
VWidth: 0
Flags: MW
LayerCount: 2
Fore
SplineSet
360 653 m 1
 330 591 298 526 273 457 c 0
 228 333 190 193 184 30 c 1
 255 40 l 1
 255 0 l 1
 50 0 l 1
 50 41 l 1
 110 30 l 1
 112 62 118 96 124 131 c 0
 143 243 174 351 208 447 c 0
 233 522 262 595 293 668 c 1
 40 658 l 1
 40 720 l 1
 360 710 l 1
 360 653 l 1
EndSplineSet
Validated: 1
EndChar

StartChar: eight
Encoding: 24 56 23
Width: 553
VWidth: 0
Flags: MW
LayerCount: 2
Fore
SplineSet
513 188 m 0
 513 109 458 37 373 4 c 0
 345 -7 312 -10 278 -10 c 0
 216 -10 146 10 108 44 c 0
 63 84 40 136 40 182 c 0
 40 272 105 359 208 380 c 1
 113 403 64 475 64 548 c 0
 64 616 107 685 193 716 c 0
 220 726 249 730 278 730 c 0
 379 730 489 668 489 547 c 0
 489 469 433 400 348 380 c 1
 431 360 513 294 513 188 c 0
414 181 m 0
 414 267 359 362 274 362 c 0
 190 362 134 270 134 190 c 0
 134 84 212 14 279 14 c 0
 340 14 414 81 414 181 c 0
276 393 m 0
 341 393 400 461 400 542 c 0
 400 627 343 709 271 709 c 0
 193 709 155 633 155 555 c 0
 155 475 196 393 276 393 c 0
EndSplineSet
Validated: 1
EndChar

StartChar: nine
Encoding: 25 57 24
Width: 548
VWidth: 0
Flags: MW
LayerCount: 2
Fore
SplineSet
416 399 m 1
 379 374 326 356 266 356 c 0
 163 356 90 402 57 473 c 0
 45 499 40 525 40 552 c 0
 40 614 69 657 104 687 c 0
 140 718 199 740 265 740 c 0
 438 740 508 624 508 458 c 0
 508 349 488 255 457 173 c 0
 448 149 437 128 426 110 c 0
 381 37 317 0 234 0 c 0
 177 0 129 8 89 25 c 1
 102 85 l 1
 138 73 166 51 201 37 c 0
 211 32 221 31 231 31 c 0
 263 31 293 50 312 65 c 0
 362 106 396 156 407 237 c 0
 412 278 415 318 415 359 c 1
 416 399 l 1
  Spiro
    416 399 v
    374.047 376.76 o
    323.279 361.582 o
    266 356 o
    173.452 370.527 o
    102.904 411.163 o
    57 473 o
    47.2668 499.011 o
    41.7372 525.323 o
    40 552 o
    48.798 607.839 o
    71.8803 652.484 o
    104 687 o
    147.025 714.495 o
    201.985 733.161 o
    265 740 o
    404.781 703.848 o
    483.495 604.764 o
    508 458 o
    501.679 353.988 o
    483.977 259.021 o
    457 173 o
    447.418 150.022 o
    436.915 128.98 o
    426 110 o
    374.724 49.0859 o
    310.596 12.2718 o
    234 0 o
    180.014 2.69826 o
    131.658 10.9741 o
    89 25 v
    102 85 v
    135.857 70.35 o
    167.81 52.9827 o
    201 37 o
    210.99 33.2249 o
    221.01 31.4434 o
    231 31 o
    261.97 36.4714 o
    289.692 49.5336 o
    312 65 o
    356.369 109.765 o
    388.618 165.581 o
    407 237 o
    411.293 277.7 o
    414.039 318.3 o
    415 359 v
    0 0 z
  EndSpiro
135 552 m 0
 135 468 187 379 271 379 c 0
 356 379 404 463 404 547 c 0
 404 655 335 710 267 710 c 0
 200 710 135 658 135 552 c 0
  Spiro
    135 552 o
    151.56 469.892 o
    198.468 405.136 o
    271 379 o
    343.2 403.842 o
    388.438 466.186 o
    404 547 o
    383.631 637.187 o
    332.68 691.777 o
    267 710 o
    203.059 692.627 o
    154.297 640.004 o
    0 0 z
  EndSpiro
EndSplineSet
Validated: 1
EndChar

StartChar: less
Encoding: 28 60 27
Width: 500
VWidth: 0
Flags: MW
LayerCount: 2
Fore
SplineSet
460 150 m 1
 430 90 l 1
 40 330 l 1
 40 390 l 1
 430 640 l 1
 460 580 l 1
 90 360 l 1
 460 150 l 1
EndSplineSet
Validated: 1
EndChar

StartChar: equal
Encoding: 29 61 28
Width: 500
VWidth: 0
Flags: MW
LayerCount: 2
Fore
SplineSet
40 410 m 1
 40 472 l 1
 460 472 l 1
 460 410 l 1
 40 410 l 1
40 250 m 1
 40 312 l 1
 460 312 l 1
 460 250 l 1
 40 250 l 1
EndSplineSet
Validated: 1
EndChar

StartChar: greater
Encoding: 30 62 29
Width: 500
VWidth: 0
Flags: MW
LayerCount: 2
Fore
SplineSet
40 150 m 1
 410 360 l 1
 40 580 l 1
 70 640 l 1
 460 390 l 1
 460 330 l 1
 70 90 l 1
 40 150 l 1
EndSplineSet
Validated: 1
EndChar

StartChar: question
Encoding: 31 63 30
Width: 459
VWidth: 0
Flags: MW
LayerCount: 2
Fore
SplineSet
333 559 m 0
 333 644 281 687 195 687 c 0
 178 687 158 681 136 668 c 0
 114 656 90 644 64 631 c 1
 40 691 l 1
 101 718 154 732 200 732 c 0
 322 732 399 681 399 562 c 0
 399 469 345 403 282 372 c 0
 257 360 230 354 200 354 c 1
 203 220 l 1
 162 220 l 1
 151 255 140 321 140 372 c 0
 140 374 140 376 140 378 c 1
 182 387 206 395 240 410 c 0
 296 435 333 490 333 559 c 0
EndSplineSet
Refer: 1 46 N 1 0 0 1 92 0 2
Validated: 1
EndChar

StartChar: at
Encoding: 32 64 31
Width: 723
VWidth: 0
Flags: MW
LayerCount: 2
Fore
SplineSet
517 -39 m 1
 474 -53 429 -60 383 -60 c 0
 362 -60 341 -59 319 -56 c 0
 223 -43 150 1 100 76 c 0
 60 133 40 200 40 280 c 0
 40 304 42 329 46 356 c 0
 64 490 108 592 178 662 c 0
 236 721 304 750 381 750 c 0
 396 750 411 749 426 747 c 0
 582 726 683 605 683 432 c 0
 683 411 682 389 679 367 c 0
 667 277 587 111 489 111 c 0
 469 111 448 118 426 135 c 0
 403 153 393 181 390 218 c 1
 369 191 341 163 305 151 c 0
 295 148 286 147 277 147 c 0
 218 147 186 215 186 281 c 0
 186 290 187 299 188 308 c 0
 198 377 222 431 262 472 c 0
 296 506 336 525 375 525 c 0
 403 525 431 515 457 496 c 1
 461 507 l 1
 535 497 l 1
 502 400 478 324 448 229 c 0
 443 212 444 216 441 200 c 0
 440 196 440 192 440 189 c 0
 440 164 452 151 476 148 c 0
 478 148 480 148 482 148 c 0
 551 148 605 306 615 375 c 0
 618 397 620 418 620 438 c 0
 620 499 606 551 579 594 c 0
 550 638 519 681 472 707 c 0
 451 719 428 725 403 725 c 0
 367 725 339 712 314 698 c 0
 277 677 246 648 219 618 c 0
 163 555 127 465 111 347 c 0
 108 323 106 300 106 278 c 0
 106 213 121 156 151 108 c 0
 180 59 218 14 269 -14 c 0
 292 -26 314 -33 346 -33 c 0
 410 -33 458 -6 510 8 c 1
 517 -39 l 1
  Spiro
    517 -39 v
    473.415 -50.6573 o
    428.584 -57.6713 o
    383 -60 o
    361.984 -59.6304 o
    340.682 -58.3686 o
    319 -56 o
    192.25 -13.25 o
    100 76 o
    66.6933 136.38 o
    46.6533 204.294 o
    40 280 o
    40.6653 304.346 o
    42.6693 329.655 o
    46 356 o
    92.5 533 o
    178 662 o
    239.232 710.998 o
    307.108 740.316 o
    381 750 o
    403.5 749.25 o
    426 747 o
    561.849 694.527 o
    651.099 585.756 o
    683 432 o
    682.63 410.725 o
    681.369 388.941 o
    679 367 o
    646.237 260.743 o
    579.068 157.287 o
    489 111 o
    468.687 113.439 o
    447.645 121.233 o
    426 135 o
    407.126 156.272 o
    395.547 184.068 o
    390 218 v
    366.655 191.322 o
    338.34 167.683 o
    305 151 o
    295.306 148.631 o
    286.028 147.37 o
    277 147 o
    227.226 167.037 o
    196.461 216.985 o
    186 281 o
    186.296 289.991 o
    187.038 299.009 o
    188 308 o
    202.721 372.015 o
    227.289 426.642 o
    262 472 o
    297.704 500.828 o
    335.965 518.827 o
    375 525 o
    402.898 521.71 o
    430.435 511.95 o
    457 496 v
    461 507 v
    535 497 v
    504.473 405.606 o
    476.528 319.061 o
    448 229 o
    444.632 217.489 o
    443.036 210.845 o
    441 200 o
    440.297 196.041 o
    440.037 192.293 o
    440 189 o
    443.992 167.943 o
    456.016 154.398 o
    476 148 o
    482 148 o
    544.87 191.441 o
    591.444 285.582 o
    615 375 o
    617.627 396.645 o
    619.372 417.687 o
    620 438 o
    615.38 495.945 o
    601.611 548.049 o
    579 594 o
    548.847 637.033 o
    514.147 675.961 o
    472 707 o
    439 720.5 o
    403 725 o
    369.513 721.118 o
    340.158 711.21 o
    314 698 o
    278.959 674.618 o
    247.378 647.379 o
    219 618 o
    169.709 546.044 o
    133.637 455.604 o
    111 347 o
    108.373 323.357 o
    106.628 300.311 o
    106 278 o
    110.99 215.763 o
    126.02 158.909 o
    151 108 o
    183.113 60.8597 o
    222.228 19.1473 o
    269 -14 o
    292.051 -24.2508 o
    316.952 -30.7452 o
    346 -33 o
    405.352 -25.495 o
    458.644 -8.83363 o
    510 8 v
    0 0 z
  EndSpiro
441 442 m 1
 430 456 424 475 412 488 c 0
 400 500 388 505 377 505 c 0
 317 505 270 355 263 308 c 2
 256 259 l 2
 255 253 255 248 255 243 c 0
 255 218 263 206 276 189 c 0
 284 178 291 172 300 172 c 0
 306 172 314 176 323 183 c 0
 341 196 391 234 394 256 c 1
 441 442 l 1
  Spiro
    441 442 v
    431.268 457.243 o
    422.398 473.423 o
    412 488 o
    400.049 497.733 o
    388.285 503.263 o
    377 505 o
    322.382 464.442 o
    282.303 379.875 o
    263 308 [
    256 259 ]
    255.297 253.302 o
    255.037 248.032 o
    255 243 o
    257.551 221.685 o
    264.787 204.984 o
    276 189 o
    283.77 179.711 o
    291.564 173.959 o
    300 172 o
    306.622 173.294 o
    314.379 177.042 o
    323 183 o
    348.71 202.79 o
    378.285 230.213 o
    394 256 v
    0 0 z
  EndSpiro
EndSplineSet
Validated: 1
EndChar

StartChar: bracketleft
Encoding: 59 91 32
Width: 290
VWidth: 0
Flags: HMWO
LayerCount: 2
Fore
SplineSet
40 -96 m 5
 40 704 l 5
 250 704 l 5
 250 664 l 5
 110 674 l 5
 110 -66 l 5
 250 -56 l 5
 250 -96 l 5
 40 -96 l 5
EndSplineSet
EndChar

StartChar: backslash
Encoding: 60 92 33
Width: 341
VWidth: 0
Flags: MW
LayerCount: 2
Fore
SplineSet
235 0 m 1
 40 720 l 1
 108 720 l 1
 301 0 l 1
 235 0 l 1
EndSplineSet
Validated: 1
EndChar

StartChar: bracketright
Encoding: 61 93 34
Width: 290
VWidth: 0
Flags: HMW
LayerCount: 2
Fore
SplineSet
250 -96 m 5
 40 -96 l 5
 40 -56 l 5
 180 -66 l 5
 180 674 l 5
 40 664 l 5
 40 704 l 5
 250 704 l 5
 250 -96 l 5
EndSplineSet
EndChar

StartChar: underscore
Encoding: 63 95 35
Width: 636
VWidth: 0
Flags: MW
LayerCount: 2
Fore
SplineSet
596 0 m 1
 40 0 l 1
 40 58 l 1
 596 58 l 1
 596 0 l 1
EndSplineSet
Validated: 1
EndChar

StartChar: braceleft
Encoding: 91 123 36
Width: 320
VWidth: 0
Flags: HMW
LayerCount: 2
Fore
SplineSet
40 332 m 5
 60 332 126 334 126 394 c 4
 126 462 60 487 60 588 c 4
 60 697 232 700 280 700 c 5
 250 658 l 5
 250 658 230 661 206 661 c 4
 165 661 110 652 110 604 c 4
 110 527 180 492 180 396 c 4
 180 326 90 300 90 300 c 5
 90 300 180 274 180 204 c 4
 180 108 110 73 110 -4 c 4
 110 -47 153 -56 191 -56 c 4
 222 -56 250 -50 250 -50 c 5
 280 -100 l 5
 232 -100 60 -97 60 12 c 4
 60 113 126 138 126 206 c 4
 126 266 60 268 40 268 c 5
 40 332 l 5
EndSplineSet
EndChar

StartChar: bar
Encoding: 92 124 37
Width: 160
VWidth: 0
Flags: HMW
LayerCount: 2
Fore
SplineSet
116 710 m 5
 120 -70 l 5
 40 -70 l 5
 44 710 l 5
 116 710 l 5
EndSplineSet
EndChar

StartChar: braceright
Encoding: 93 125 38
Width: 320
VWidth: 0
Flags: HMW
LayerCount: 2
Fore
SplineSet
280 332 m 5
 280 268 l 5
 260 268 194 266 194 206 c 4
 194 138 260 113 260 12 c 4
 260 -97 88 -100 40 -100 c 5
 70 -50 l 5
 70 -50 98 -56 129 -56 c 4
 167 -56 210 -47 210 -4 c 4
 210 73 140 108 140 204 c 4
 140 274 230 300 230 300 c 5
 230 300 140 326 140 396 c 4
 140 492 210 527 210 604 c 4
 210 652 155 661 114 661 c 4
 90 661 70 658 70 658 c 5
 40 700 l 5
 88 700 260 697 260 588 c 4
 260 487 194 462 194 394 c 4
 194 334 260 332 280 332 c 5
EndSplineSet
EndChar

StartChar: asciitilde
Encoding: 94 126 39
Width: 605
VWidth: 0
Flags: MW
LayerCount: 2
Fore
SplineSet
565 442 m 1
 565 439 565 436 565 434 c 0
 565 341 515 289 421 289 c 2
 369 289 327 315 292 336 c 0
 265 353 230 384 195 384 c 0
 149 384 102 321 96 280 c 1
 40 280 l 1
 40 284 40 288 40 292 c 0
 40 379 94 440 183 440 c 0
 234 440 275 413 308 392 c 0
 336 374 371 344 408 344 c 0
 455 344 505 397 507 442 c 1
 565 442 l 1
EndSplineSet
Validated: 1
EndChar

StartChar: exclamdown
Encoding: 95 161 40
Width: 169
VWidth: 0
Flags: MW
LayerCount: 2
Fore
SplineSet
101 500 m 1
 110 330 119 160 129 -10 c 1
 47 0 l 1
 42 185 l 1
 59 500 l 1
 101 500 l 1
EndSplineSet
Refer: 1 46 N -1 0 0 -1 164 720 2
Validated: 1
EndChar

StartChar: cent
Encoding: 96 162 41
Width: 477
VWidth: 0
Flags: MW
LayerCount: 2
Fore
SplineSet
312 670 m 1
 380 670 l 1
 346 543 l 1
 380 538 414 529 437 520 c 1
 412 451 l 1
 383 463 359 482 333 497 c 1
 214 58 l 2
 216 57 217 56 219 54 c 0
 236 41 257 34 282 34 c 0
 308 34 333 50 352 61 c 0
 374 75 397 91 423 101 c 1
 437 34 l 1
 399 13 344 0 290 0 c 0
 259 0 229 4 202 13 c 1
 185 -50 l 1
 119 -50 l 1
 144 43 l 1
 130 53 117 65 108 75 c 0
 63 124 40 191 40 274 c 0
 40 429 130 547 279 548 c 1
 312 670 l 1
164 116 m 1
 271 518 l 1
 221 514 192 488 166 457 c 0
 133 416 124 345 124 273 c 0
 124 206 134 160 164 116 c 1
EndSplineSet
Validated: 1
EndChar

StartChar: sterling
Encoding: 97 163 42
Width: 533
VWidth: 0
Flags: MW
LayerCount: 2
Fore
SplineSet
493 58 m 1
 493 0 l 1
 73 0 l 1
 73 50 l 1
 73 50 170 98 170 253 c 0
 170 285 166 322 157 363 c 1
 40 393 l 1
 50 432 l 1
 144 408 l 1
 129 468 117 515 117 557 c 0
 117 726 262 744 343 744 c 0
 441 744 470 723 470 723 c 1
 445 658 l 1
 445 658 389 702 351 708 c 0
 339 710 328 711 318 711 c 0
 231 711 185 653 185 556 c 0
 185 509 201 445 217 389 c 1
 387 345 l 1
 377 307 l 1
 229 345 l 1
 237 307 242 274 242 243 c 0
 242 153 203 89 123 30 c 1
 134 32 l 1
 493 58 l 1
EndSplineSet
Validated: 1
EndChar

StartChar: currency
Encoding: 98 164 43
Width: 576
VWidth: 0
Flags: MW
LayerCount: 2
Fore
SplineSet
424 186 m 1
 382 165 333 155 286 155 c 0
 237 155 189 165 151 185 c 1
 88 122 l 1
 46 164 l 1
 102 220 l 1
 60 259 40 311 40 362 c 0
 40 415 61 467 103 507 c 1
 46 564 l 1
 88 606 l 1
 153 542 l 1
 163 547 179 554 189 557 c 0
 220 569 253 574 287 574 c 0
 334 574 382 563 423 541 c 1
 488 606 l 1
 530 564 l 1
 472 506 l 1
 511 470 536 421 536 359 c 0
 536 300 512 254 474 220 c 1
 530 164 l 1
 488 122 l 1
 424 186 l 1
384 225 m 0
 399 242 412 265 422 291 c 0
 430 311 433 333 433 356 c 0
 433 387 427 419 414 448 c 0
 393 499 348 548 284 548 c 0
 221 548 178 501 157 452 c 0
 145 424 139 394 139 364 c 0
 139 333 146 302 158 276 c 0
 167 256 179 239 192 225 c 0
 220 194 255 179 289 179 c 0
 323 179 357 194 384 225 c 0
EndSplineSet
Validated: 1
EndChar

StartChar: yen
Encoding: 99 165 44
Width: 532
VWidth: 0
Flags: MW
LayerCount: 2
Fore
SplineSet
143 520 m 1
 40 720 l 1
 120 720 l 1
 264 390 l 1
 410 720 l 1
 492 720 l 1
 394 520 l 1
 492 520 l 1
 492 472 l 1
 370 472 l 1
 300 330 l 1
 300 290 l 1
 492 290 l 1
 492 242 l 1
 300 242 l 1
 300 0 l 1
 230 0 l 1
 237 242 l 1
 40 242 l 1
 40 290 l 1
 239 290 l 1
 240 330 l 1
 167 472 l 1
 40 472 l 1
 40 520 l 1
 143 520 l 1
EndSplineSet
Validated: 1
EndChar

StartChar: brokenbar
Encoding: 100 166 45
Width: 160
VWidth: 0
Flags: MW
LayerCount: 2
Fore
SplineSet
117 476 m 1
 43 476 l 1
 44 730 l 1
 116 730 l 1
 117 476 l 1
41 258 m 1
 119 258 l 1
 120 -10 l 1
 40 -10 l 1
 41 258 l 1
EndSplineSet
Validated: 1
EndChar

StartChar: section
Encoding: 101 167 46
Width: 572
VWidth: 0
Flags: MW
LayerCount: 2
Fore
SplineSet
222 504 m 1
 171 530 120 578 120 644 c 0
 120 754 211 804 308 804 c 0
 348 804 387 799 422 786 c 1
 401 731 l 1
 370 748 343 775 306 775 c 0
 272 775 226 750 209 724 c 0
 195 703 188 673 188 648 c 0
 188 547 367 536 423 451 c 0
 442 422 452 395 452 361 c 0
 452 291 422 240 378 209 c 1
 418 182 452 134 452 76 c 0
 452 -46 360 -112 261 -112 c 0
 215 -112 169 -104 129 -80 c 1
 146 -23 l 1
 174 -42 201 -61 232 -74 c 0
 243 -79 255 -81 266 -81 c 0
 298 -81 329 -65 350 -43 c 0
 376 -18 386 30 386 66 c 0
 386 176 246 191 180 244 c 0
 146 272 120 312 120 358 c 0
 120 435 164 482 222 504 c 1
188 363 m 0
 188 295 269 267 338 231 c 1
 372 257 384 307 386 351 c 0
 386 422 328 454 269 482 c 1
 219 462 188 425 188 363 c 0
EndSplineSet
Validated: 1
EndChar

StartChar: dieresis
Encoding: 102 168 47
Width: 348
VWidth: 0
Flags: MW
LayerCount: 2
Fore
SplineSet
98 750 m 0
 78 750 60 766 60 787 c 0
 60 810 75 825 98 825 c 0
 118 825 135 807 135 787 c 0
 135 768 117 750 98 750 c 0
250 750 m 0
 231 750 213 768 213 787 c 0
 213 807 230 825 250 825 c 0
 273 825 288 810 288 787 c 0
 288 766 270 750 250 750 c 0
EndSplineSet
Validated: 1
EndChar

StartChar: copyright
Encoding: 103 169 48
Width: 750
VWidth: 0
Flags: MW
LayerCount: 2
Fore
SplineSet
375 630 m 0
 225 630 105 509 105 359 c 0
 105 210 225 89 375 89 c 0
 525 89 645 210 645 359 c 0
 645 509 525 630 375 630 c 0
376 655 m 0
 409 655 460 645 490 632 c 0
 589 590 670 468 670 360 c 0
 670 197 538 65 375 65 c 0
 213 65 80 197 80 360 c 0
 80 523 213 655 376 655 c 0
469 198 m 1
 442 177 410 169 376 169 c 0
 274 169 246 258 245 358 c 0
 245 361 245 362 245 365 c 0
 245 454 278 550 373 550 c 0
 406 550 440 543 465 524 c 1
 452 491 l 1
 423 510 405 534 377 534 c 0
 360 534 341 519 323 493 c 0
 293 454 287 413 287 359 c 0
 288 301 298 235 345 200 c 0
 355 194 369 184 382 184 c 0
 389 184 399 186 405 190 c 0
 425 199 440 220 459 231 c 1
 469 198 l 1
EndSplineSet
Validated: 1
EndChar

StartChar: guillemotleft
Encoding: 105 171 49
Width: 595
VWidth: 0
Flags: HMW
LayerCount: 2
Fore
SplineSet
312 230 m 1
 515 18 l 1
 500 5 488 -2 488 -2 c 1
 488 -2 302 161 271 184 c 1
 271 272 l 1
 302 296 467 468 481 468 c 1
 489 463 501 454 508 448 c 1
 312 230 l 1
121 230 m 1
 324 18 l 1
 309 5 297 -2 297 -2 c 1
 297 -2 111 161 80 184 c 1
 80 272 l 1
 111 296 276 468 290 468 c 1
 298 463 310 454 317 448 c 1
 121 230 l 1
EndSplineSet
Validated: 1
EndChar

StartChar: logicalnot
Encoding: 106 172 50
Width: 480
VWidth: 0
Flags: MW
LayerCount: 2
Fore
SplineSet
375 360 m 1
 40 360 l 1
 40 418 l 1
 173 418 307 418 440 418 c 1
 440 367 440 316 440 265 c 1
 375 265 l 1
 375 360 l 1
EndSplineSet
Validated: 1
EndChar

StartChar: registered
Encoding: 108 174 52
Width: 750
VWidth: 0
Flags: MW
LayerCount: 2
Fore
SplineSet
375 631 m 0
 225 631 105 510 105 360 c 0
 105 211 225 90 375 90 c 0
 525 90 645 211 645 360 c 0
 645 510 525 631 375 631 c 0
376 656 m 0
 409 656 460 646 490 633 c 0
 589 591 670 469 670 361 c 0
 670 198 538 66 375 66 c 0
 213 66 80 198 80 361 c 0
 80 524 213 656 376 656 c 0
485 451 m 0
 485 396 457 368 405 362 c 1
 487 175 l 1
 441 175 l 1
 374 360 l 1
 323 360 l 1
 328 175 l 1
 287 175 l 1
 287 545 l 1
 377 545 l 2
 443 545 485 518 485 451 c 0
373 375 m 2
 425 375 451 402 451 452 c 0
 451 503 425 531 375 531 c 1
 323 529 l 1
 323 375 l 1
 373 375 l 2
EndSplineSet
Validated: 1
EndChar

StartChar: macron
Encoding: 109 175 53
Width: 254
VWidth: 0
Flags: MW
LayerCount: 2
Fore
SplineSet
40 750 m 1
 40 790 l 1
 214 790 l 1
 214 750 l 1
 40 750 l 1
EndSplineSet
Validated: 1
EndChar

StartChar: degree
Encoding: 110 176 54
Width: 279
VWidth: 0
Flags: MW
LayerCount: 2
Fore
SplineSet
239 616 m 0
 239 562 187 534 138 534 c 0
 79 534 40 574 40 617 c 0
 40 662 80 702 139 702 c 0
 188 702 239 671 239 616 c 0
138 692 m 0
 101 692 80 653 80 618 c 0
 80 575 112 544 140 544 c 0
 167 544 197 574 197 616 c 0
 197 652 174 692 138 692 c 0
EndSplineSet
Validated: 1
EndChar

StartChar: plusminus
Encoding: 111 177 55
Width: 500
VWidth: 0
Flags: MW
LayerCount: 2
Fore
SplineSet
285 421 m 1
 460 421 l 1
 460 360 l 1
 285 360 l 1
 285 184 l 1
 440 184 l 1
 440 126 l 1
 67 126 l 1
 67 184 l 1
 221 184 l 1
 221 360 l 1
 40 360 l 1
 40 421 l 1
 221 421 l 1
 221 604 l 1
 285 604 l 1
 285 421 l 1
EndSplineSet
Validated: 1
EndChar

StartChar: uni00B2
Encoding: 112 178 56
Width: 319
VWidth: 0
Flags: MW
LayerCount: 2
Fore
SplineSet
47 706 m 1
 73 717 109 730 143 730 c 0
 203 730 246 701 263 660 c 0
 270 645 273 629 273 611 c 0
 273 539 227 480 187 440 c 0
 153 405 115 368 80 330 c 1
 279 338 l 1
 279 295 l 1
 40 295 l 1
 40 331 l 1
 98 395 139 437 184 499 c 0
 203 524 231 570 231 609 c 0
 231 665 193 702 135 702 c 0
 122 702 110 693 99 687 c 0
 85 678 72 670 52 663 c 1
 47 706 l 1
EndSplineSet
Validated: 1
EndChar

StartChar: uni00B3
Encoding: 113 179 57
Width: 354
VWidth: 0
Flags: MW
LayerCount: 2
Fore
SplineSet
314 420 m 0
 314 348 238 295 153 295 c 0
 112 295 73 307 40 329 c 1
 55 369 l 1
 80 351 110 316 150 316 c 0
 216 316 264 364 264 416 c 0
 264 477 194 520 140 522 c 1
 147 544 l 1
 198 544 239 572 239 621 c 0
 239 658 221 704 175 706 c 1
 141 702 110 678 83 662 c 1
 66 701 l 1
 96 722 137 730 175 730 c 0
 241 730 292 689 292 625 c 0
 292 575 258 550 214 536 c 1
 269 524 314 474 314 420 c 0
EndSplineSet
Validated: 1
EndChar

StartChar: acute
Encoding: 114 180 58
Width: 314
VWidth: 0
Flags: MW
LayerCount: 2
Fore
SplineSet
116 581 m 1
 90 600 l 1
 169 730 l 1
 224 700 l 1
 191 653 149 612 116 581 c 1
EndSplineSet
Validated: 1
EndChar

StartChar: paragraph
Encoding: 115 182 59
Width: 615
VWidth: 0
Flags: MW
LayerCount: 2
Fore
SplineSet
40 583 m 0
 40 722 146 800 289 800 c 2
 575 800 l 1
 575 748 l 1
 505 760 l 1
 505 -60 l 1
 445 -60 l 1
 455 760 l 1
 325 760 l 1
 325 -60 l 1
 265 -60 l 1
 275 380 l 1
 221 380 165 400 115 439 c 0
 65 478 40 526 40 583 c 0
EndSplineSet
Validated: 1
EndChar

StartChar: periodcentered
Encoding: 116 183 60
Width: 244
VWidth: 0
Flags: HMW
LayerCount: 2
Fore
SplineSet
122 318 m 0
 100 318 80 338 80 360 c 0
 80 382 100 402 122 402 c 0
 144 402 164 382 164 360 c 0
 164 338 144 318 122 318 c 0
EndSplineSet
Validated: 1
EndChar

StartChar: cedilla
Encoding: 117 184 61
Width: 340
VWidth: 0
Flags: MW
LayerCount: 2
Fore
SplineSet
157 16 m 1
 150 -30 l 1
 202 -43 279 -48 297 -98 c 0
 299 -104 300 -110 300 -116 c 0
 300 -142 278 -162 262 -172 c 0
 221 -198 160 -214 96 -214 c 0
 82 -214 68 -214 54 -212 c 0
 49 -212 45 -211 40 -210 c 1
 41 -154 l 1
 72 -159 106 -163 141 -163 c 0
 161 -163 180 -162 199 -159 c 0
 231 -155 266 -141 267 -104 c 1
 253 -94 237 -87 221 -83 c 0
 180 -72 135 -76 90 -72 c 1
 125 24 l 1
 157 16 l 1
  Spiro
    157 16.2666 v
    150 -29.7334 v
    202.268 -42.6798 o
    266.055 -64.1307 o
    297 -97.7334 o
    261.805 -172.357 o
    180.167 -203.754 o
    89 -213.733 o
    70.7582 -213.364 o
    54.2438 -212.102 o
    40 -209.733 v
    41 -153.733 v
    71.9294 -158.544 o
    107.407 -162.255 o
    145 -163.733 o
    198.505 -159.446 o
    244.818 -144.007 o
    267 -103.733 v
    221.034 -82.928 o
    146.632 -75.2091 o
    90 -71.7334 v
    125 24.2666 v
    0 0 z
  EndSpiro
EndSplineSet
Validated: 1
EndChar

StartChar: ordmasculine
Encoding: 119 186 63
Width: 279
VWidth: 0
Flags: MW
LayerCount: 2
Fore
SplineSet
239 616 m 0
 239 562 187 534 138 534 c 0
 79 534 40 574 40 617 c 0
 40 662 80 702 139 702 c 0
 188 702 239 671 239 616 c 0
138 692 m 0
 101 692 80 653 80 618 c 0
 80 575 112 544 140 544 c 0
 167 544 197 574 197 616 c 0
 197 652 174 692 138 692 c 0
EndSplineSet
Validated: 1
EndChar

StartChar: guillemotright
Encoding: 120 187 64
Width: 595
VWidth: 0
Flags: HMW
LayerCount: 2
Fore
SplineSet
283 230 m 1
 87 448 l 1
 94 454 106 463 114 468 c 1
 128 468 293 296 324 272 c 1
 324 184 l 1
 293 161 107 -2 107 -2 c 1
 107 -2 95 5 80 18 c 1
 283 230 l 1
474 230 m 1
 278 448 l 1
 285 454 297 463 305 468 c 1
 319 468 484 296 515 272 c 1
 515 184 l 1
 484 161 298 -2 298 -2 c 1
 298 -2 286 5 271 18 c 1
 474 230 l 1
EndSplineSet
Validated: 1
EndChar

StartChar: onequarter
Encoding: 121 188 65
Width: 666
VWidth: 0
Flags: MW
LayerCount: 2
Fore
SplineSet
40 293 m 1
 40 317 l 1
 79 313 l 1
 79 610 l 1
 75 682 l 1
 40 676 l 1
 40 699 l 1
 125 730 l 1
 132 609 l 1
 126 311 l 1
 171 317 l 1
 171 293 l 1
 40 293 l 1
533 100 m 1
 354 100 l 1
 354 136 l 1
 528 425 l 1
 574 425 l 1
 574 130 l 1
 626 133 l 1
 626 100 l 1
 574 100 l 1
 574 18 l 1
 614 24 l 1
 614 0 l 1
 493 0 l 1
 493 24 l 1
 533 18 l 1
 533 100 l 1
533 366 m 1
 389 130 l 1
 533 130 l 1
 533 366 l 1
363 720 m 1
 431 720 l 1
 236 0 l 1
 170 0 l 1
 363 720 l 1
EndSplineSet
Validated: 1
EndChar

StartChar: onehalf
Encoding: 122 189 66
Width: 689
VWidth: 0
Flags: MW
LayerCount: 2
Fore
SplineSet
417 411 m 1
 443 422 479 435 513 435 c 0
 573 435 616 406 633 365 c 0
 640 350 643 334 643 316 c 0
 643 244 597 185 557 145 c 0
 523 110 485 73 450 35 c 1
 649 44 l 1
 649 0 l 1
 410 0 l 1
 410 36 l 1
 468 100 509 142 554 204 c 0
 573 229 601 275 601 314 c 0
 601 370 563 407 505 407 c 0
 492 407 480 398 469 392 c 0
 455 383 442 375 422 368 c 1
 417 411 l 1
363 720 m 1
 431 720 l 1
 236 0 l 1
 170 0 l 1
 363 720 l 1
EndSplineSet
Refer: 16 49 N 0.655 0 0 0.598213 13.8 293.304 2
Validated: 1
EndChar

StartChar: threequarters
Encoding: 123 190 67
Width: 776
VWidth: 0
Flags: MW
LayerCount: 2
Fore
SplineSet
643 100 m 1
 464 100 l 1
 464 136 l 1
 638 425 l 1
 684 425 l 1
 684 130 l 1
 736 133 l 1
 736 100 l 1
 684 100 l 1
 684 18 l 1
 724 24 l 1
 724 0 l 1
 603 0 l 1
 603 24 l 1
 643 18 l 1
 643 100 l 1
643 366 m 1
 499 130 l 1
 643 130 l 1
 643 366 l 1
314 420 m 0
 314 348 238 295 153 295 c 0
 112 295 73 307 40 329 c 1
 55 369 l 1
 80 351 110 316 150 316 c 0
 216 316 264 364 264 416 c 0
 264 477 194 520 140 522 c 1
 147 544 l 1
 198 544 239 572 239 621 c 0
 239 658 221 704 175 706 c 1
 141 702 110 678 83 662 c 1
 66 701 l 1
 96 722 137 730 175 730 c 0
 241 730 292 689 292 625 c 0
 292 575 258 550 214 536 c 1
 269 524 314 474 314 420 c 0
473 720 m 1
 541 720 l 1
 346 0 l 1
 280 0 l 1
 473 720 l 1
EndSplineSet
Validated: 1
EndChar

StartChar: questiondown
Encoding: 124 191 68
Width: 439
VWidth: 0
Flags: MW
LayerCount: 2
Fore
SplineSet
106 163 m 0
 106 78 158 35 244 35 c 0
 261 35 281 41 303 54 c 0
 325 66 349 78 375 91 c 1
 399 31 l 1
 338 4 285 -10 239 -10 c 0
 117 -10 40 41 40 160 c 0
 40 253 94 319 157 350 c 0
 182 362 209 368 239 368 c 1
 236 502 l 1
 277 502 l 1
 288 467 299 401 299 350 c 0
 299 348 299 346 299 344 c 1
 257 335 233 327 199 312 c 0
 143 287 106 232 106 163 c 0
EndSplineSet
Refer: 1 46 N -1 0 0 -1 337 722 2
Validated: 1
EndChar

StartChar: multiply
Encoding: 148 215 69
Width: 464
VWidth: 0
Flags: MW
LayerCount: 2
Fore
SplineSet
215 402 m 1
 338 526 l 1
 381 483 l 1
 258 359 l 1
 382 235 l 1
 337 190 l 1
 212 314 l 1
 84 186 l 1
 41 229 l 1
 169 357 l 1
 40 487 l 1
 85 532 l 1
 215 402 l 1
EndSplineSet
Validated: 1
EndChar

StartChar: divide
Encoding: 180 247 70
Width: 500
VWidth: 0
Flags: MW
LayerCount: 2
Fore
SplineSet
40 328 m 1
 40 390 l 1
 460 390 l 1
 460 328 l 1
 40 328 l 1
EndSplineSet
Refer: 1 46 N 1 0 0 1 168 470 2
Refer: 1 46 N 1 0 0 1 168 176 2
Validated: 1
EndChar

StartChar: A
Encoding: 33 65 71
Width: 590
VWidth: 0
Flags: HMW
LayerCount: 2
Fore
SplineSet
490 0 m 1
 420 260 l 1
 170 260 l 1
 100 0 l 1
 10 0 l 1
 120 300 l 1
 270 720 l 1
 320 720 l 1
 470 300 l 1
 580 0 l 1
 490 0 l 1
292 640 m 1
 184 300 l 1
 406 300 l 1
 292 640 l 1
EndSplineSet
Validated: 1
EndChar

StartChar: B
Encoding: 34 66 72
Width: 585
VWidth: 0
Flags: HMW
LayerCount: 2
Fore
SplineSet
545 206 m 0
 545 179 540 152 526 127 c 0
 498 76 450 39 394 18 c 0
 368 4 318 0 266 0 c 2
 70 0 l 1
 70 720 l 1
 266 720 l 2
 356 720 421 713 459 675 c 0
 497 642 516 597 516 552 c 0
 516 486 474 422 393 401 c 1
 393 399 l 1
 480 380 545 293 545 206 c 0
251 409 m 0
 322 409 395 417 424 490 c 0
 430 505 432 521 432 538 c 0
 432 577 418 618 400 645 c 0
 373 685 326 692 278 692 c 0
 250 692 175 690 150 690 c 1
 150 410 l 1
 168 410 232 409 251 409 c 0
246 27 m 0
 394 27 467 113 467 200 c 0
 467 290 389 382 238 382 c 0
 224 382 164 381 150 380 c 1
 150 30 l 1
 168 28 230 27 246 27 c 0
EndSplineSet
Validated: 1
EndChar

StartChar: C
Encoding: 35 67 73
Width: 566
VWidth: 0
Flags: HMW
LayerCount: 2
Fore
SplineSet
322 -10 m 2
 320 -10 l 2
 78 -10 20 170 20 374 c 0
 20 540 92 730 312 730 c 0
 387 730 464 718 522 680 c 1
 492 616 l 1
 426 653 386 700 321 700 c 0
 194 700 100 571 100 378 c 0
 100 209 140 22 318 22 c 0
 348 22 373 27 386 30 c 0
 412 36 466 89 510 112 c 1
 536 46 l 1
 476 6 400 -10 322 -10 c 2
EndSplineSet
Validated: 1
EndChar

StartChar: D
Encoding: 36 68 74
Width: 607
VWidth: 0
Flags: HMW
LayerCount: 2
Fore
SplineSet
567 358 m 0
 567 244 540 155 488 93 c 0
 437 30 371 0 292 0 c 2
 60 0 l 1
 60 720 l 1
 290 718 l 1
 474 718 567 556 567 358 c 0
274 26 m 0
 300 26 323 29 341 40 c 0
 426 95 487 213 487 353 c 2
 487 366 l 1
 483 507 425 625 334 679 c 1
 320 689 272 691 224 691 c 0
 193 691 163 690 140 690 c 1
 140 30 l 1
 164 30 252 26 274 26 c 0
EndSplineSet
Validated: 1
EndChar

StartChar: E
Encoding: 37 69 75
Width: 500
VWidth: 0
Flags: HMW
LayerCount: 2
Fore
SplineSet
60 0 m 1
 60 720 l 1
 446 720 l 1
 446 684 l 1
 140 690 l 1
 140 382 l 1
 390 384 l 1
 390 350 l 1
 140 352 l 1
 144 30 l 1
 450 41 l 1
 450 0 l 1
 60 0 l 1
EndSplineSet
Validated: 1
EndChar

StartChar: F
Encoding: 38 70 76
Width: 480
VWidth: 0
InSpiro: 1
Flags: HMW
LayerCount: 2
Fore
SplineSet
60 720 m 1
 440 720 l 1
 440 683 l 1
 140 690 l 1
 140 382 l 1
 412 384 l 1
 412 350 l 1
 140 352 l 1
 140 0 l 1
 60 0 l 1
 60 720 l 1
  Spiro
    60 720 v
    440 720 v
    440 683 v
    140 690 v
    140 382 v
    412 384 v
    412 350 v
    140 352 v
    140 0 v
    60 0 v
    0 0 z
  EndSpiro
EndSplineSet
Validated: 1
EndChar

StartChar: G
Encoding: 39 71 77
Width: 616
VWidth: 0
Flags: HMW
LayerCount: 2
Fore
SplineSet
543 70 m 1
 481 31 417 -10 337 -10 c 2
 320 -10 l 2
 88 -10 20 184 20 374 c 0
 20 541 95 730 320 730 c 2
 332 730 l 1
 403 729 480 716 537 680 c 1
 506 616 l 1
 439 653 397 700 331 700 c 0
 154 700 100 482 100 360 c 2
 100 354 l 2
 100 229 142 101 226 51 c 0
 250 37 291 30 322 30 c 0
 383 30 442 48 492 94 c 1
 476 350 l 1
 346 344 l 1
 346 376 l 1
 566 376 l 1
 543 70 l 1
EndSplineSet
Validated: 1
EndChar

StartChar: H
Encoding: 40 72 78
Width: 643
VWidth: 0
Flags: HMW
LayerCount: 2
Fore
SplineSet
493 0 m 1
 503 390 l 1
 140 390 l 1
 150 0 l 1
 70 0 l 1
 70 720 l 1
 150 720 l 1
 140 420 l 1
 503 420 l 1
 493 720 l 1
 573 720 l 1
 573 0 l 1
 493 0 l 1
EndSplineSet
Validated: 1
EndChar

StartChar: I
Encoding: 41 73 79
Width: 358
VWidth: 0
Flags: HMW
LayerCount: 2
Fore
SplineSet
50 34 m 1
 142 30 l 1
 142 690 l 1
 50 683 l 1
 50 720 l 1
 308 720 l 1
 308 683 l 1
 216 690 l 1
 216 30 l 1
 308 34 l 1
 308 0 l 1
 50 0 l 1
 50 34 l 1
EndSplineSet
Validated: 1
EndChar

StartChar: J
Encoding: 42 74 80
Width: 447
VWidth: 0
Flags: HMW
LayerCount: 2
Fore
SplineSet
397 191 m 2
 397 68 339 -10 216 -10 c 1
 146 -9 76 9 20 46 c 1
 46 112 l 1
 90 89 144 42 170 36 c 0
 183 33 203 30 216 30 c 0
 261 30 326 67 326 190 c 2
 326 690 l 1
 100 684 l 1
 100 720 l 1
 396 720 l 1
 397 191 l 2
EndSplineSet
Validated: 1
EndChar

StartChar: K
Encoding: 43 75 81
Width: 600
VWidth: 0
Flags: HMW
LayerCount: 2
Fore
SplineSet
470 0 m 1
 254 360 l 1
 140 240 l 1
 160 0 l 1
 80 0 l 1
 80 720 l 1
 160 720 l 1
 140 330 l 1
 490 720 l 1
 580 720 l 1
 280 390 l 1
 570 0 l 1
 470 0 l 1
EndSplineSet
Validated: 1
EndChar

StartChar: L
Encoding: 44 76 82
Width: 438
VWidth: 0
Flags: HMW
LayerCount: 2
Fore
SplineSet
50 720 m 1
 130 720 l 1
 130 30 l 1
 418 40 l 1
 418 0 l 1
 50 0 l 1
 50 720 l 1
EndSplineSet
Validated: 1
EndChar

StartChar: N
Encoding: 46 78 83
Width: 670
VWidth: 0
Flags: MW
LayerCount: 2
Fore
SplineSet
516 720 m 1
 590 720 l 1
 590 0 l 1
 500 0 l 1
 140 642 l 1
 160 0 l 1
 80 0 l 1
 80 720 l 1
 164 720 l 1
 530 90 l 1
 516 720 l 1
EndSplineSet
Validated: 1
EndChar

StartChar: M
Encoding: 45 77 84
Width: 736
VWidth: 0
Flags: HMW
LayerCount: 2
Fore
SplineSet
593 610 m 1
 403 330 l 1
 343 330 l 1
 143 610 l 1
 143 0 l 1
 63 0 l 1
 83 720 l 1
 137 720 l 1
 369 370 l 1
 589 720 l 1
 653 720 l 1
 673 0 l 1
 593 0 l 1
 593 610 l 1
EndSplineSet
Validated: 1
EndChar

StartChar: O
Encoding: 47 79 85
Width: 636
VWidth: 0
Flags: HMW
LayerCount: 2
Fore
SplineSet
603 369 m 2
 603 364 l 2
 603 305 597 249 586 201 c 0
 558 73 453 -10 321 -10 c 2
 319 -10 l 2
 283 -10 227 1 196 14 c 0
 55 82 35 226 33 362 c 0
 35 555 90 724 318 730 c 1
 543 730 603 544 603 369 c 2
525 350 m 0
 525 408 519 461 511 497 c 0
 490 585 448 694 319 694 c 0
 186 694 145 586 125 497 c 0
 117 452 111 398 111 344 c 0
 111 189 156 26 318 26 c 0
 485 26 525 203 525 350 c 0
EndSplineSet
Validated: 1
EndChar

StartChar: P
Encoding: 48 80 86
Width: 560
VWidth: 0
Flags: HMW
LayerCount: 2
Fore
SplineSet
351 719 m 2
 409 719 449 704 482 677 c 0
 514 650 530 589 530 532 c 0
 530 479 513 419 482 393 c 0
 451 364 408 349 355 349 c 2
 150 350 l 1
 150 0 l 1
 70 0 l 1
 70 720 l 1
 351 719 l 2
452 530 m 0
 452 617 436 682 349 682 c 2
 150 680 l 1
 148 386 l 1
 345 386 l 2
 432 386 452 443 452 530 c 0
EndSplineSet
Validated: 1
EndChar

StartChar: Q
Encoding: 49 81 87
Width: 693
VWidth: 0
Flags: HMW
LayerCount: 2
Fore
SplineSet
225 346 m 1
 253 386 l 1
 502 178 l 1
 519 232 525 293 525 350 c 0
 525 408 519 461 511 497 c 0
 490 585 448 694 319 694 c 0
 186 694 145 586 125 497 c 0
 117 452 111 398 111 344 c 0
 111 189 156 26 318 26 c 0
 401 26 452 69 483 131 c 1
 225 346 l 1
603 369 m 2
 603 364 l 2
 603 305 597 249 586 201 c 0
 580 175 571 152 560 130 c 1
 673 36 l 1
 645 -4 l 1
 534 89 l 1
 484 27 409 -10 321 -10 c 2
 319 -10 l 2
 283 -10 227 1 196 14 c 0
 55 82 35 226 33 362 c 0
 35 555 90 724 318 730 c 1
 543 730 603 544 603 369 c 2
EndSplineSet
Validated: 1
EndChar

StartChar: R
Encoding: 50 82 88
Width: 598
VWidth: 0
InSpiro: 1
Flags: HMW
LayerCount: 2
Fore
SplineSet
150 350 m 1
 150 0 l 1
 70 0 l 1
 70 720 l 1
 320 720 l 2
 416 720 492 689 516 616 c 0
 524 595 529 560 529 538 c 0
 529 430 474 366 374 353 c 1
 534 0 l 1
 444 0 l 1
 314 350 l 1
 150 350 l 1
454 540 m 0
 454 639 414 684 316 684 c 2
 150 680 l 1
 150 386 l 1
 312 386 l 2
 412 386 454 442 454 540 c 0
EndSplineSet
Validated: 1
EndChar

StartChar: S
Encoding: 51 83 89
Width: 590
VWidth: 0
Flags: HMW
LayerCount: 2
Fore
SplineSet
170 646 m 0
 147 624 124 592 124 548 c 0
 124 397 534 422 534 210 c 0
 534 67 401 -10 258 -10 c 0
 192 -10 125 -1 66 27 c 1
 91 94 l 1
 134 60 213 30 286 30 c 0
 374 30 454 72 462 198 c 0
 462 200 462 203 462 205 c 0
 462 380 54 346 54 542 c 0
 54 672 186 730 325 730 c 0
 384 730 440 724 491 709 c 1
 460 644 l 1
 405 670 348 699 291 699 c 0
 251 699 211 685 170 646 c 0
EndSplineSet
Validated: 1
EndChar

StartChar: T
Encoding: 52 84 90
Width: 600
VWidth: 0
Flags: MW
LayerCount: 2
Fore
SplineSet
340 0 m 1
 260 0 l 1
 264 690 l 1
 30 676 l 1
 30 720 l 1
 570 720 l 1
 570 676 l 1
 336 690 l 1
 340 0 l 1
EndSplineSet
Validated: 1
EndChar

StartChar: U
Encoding: 53 85 91
Width: 620
VWidth: 0
Flags: HMW
LayerCount: 2
Fore
SplineSet
314 -10 m 0
 175 -10 70 70 70 230 c 2
 70 720 l 1
 150 720 l 1
 150 701 l 2
 150 621 144 367 144 234 c 0
 144 193 144 164 146 154 c 0
 155 90 241 30 314 30 c 0
 388 30 464 88 474 154 c 0
 475 164 476 193 476 234 c 0
 476 373 470 644 470 710 c 2
 470 720 l 1
 550 720 l 1
 550 230 l 2
 550 80 454 -10 314 -10 c 0
EndSplineSet
Validated: 1
EndChar

StartChar: V
Encoding: 54 86 92
Width: 640
VWidth: 0
Flags: MW
LayerCount: 2
Fore
SplineSet
268 0 m 1
 40 720 l 1
 120 720 l 1
 312 60 l 1
 520 720 l 1
 600 720 l 1
 356 0 l 1
 268 0 l 1
EndSplineSet
Validated: 1
EndChar

StartChar: W
Encoding: 55 87 93
Width: 900
VWidth: 0
Flags: MW
LayerCount: 2
Fore
SplineSet
220 0 m 1
 40 720 l 1
 110 720 l 1
 280 80 l 1
 440 450 l 1
 470 450 l 1
 630 80 l 1
 800 720 l 1
 870 720 l 1
 690 0 l 1
 600 0 l 1
 456 392 l 1
 310 0 l 1
 220 0 l 1
EndSplineSet
Validated: 1
EndChar

StartChar: X
Encoding: 56 88 94
Width: 581
VWidth: 0
Flags: HMW
LayerCount: 2
Fore
SplineSet
275 310 m 1
 110 0 l 1
 30 0 l 1
 255 370 l 1
 36 720 l 1
 115 720 l 1
 295 430 l 1
 464 720 l 1
 543 720 l 1
 305 380 l 1
 551 0 l 1
 471 0 l 1
 275 310 l 1
EndSplineSet
Validated: 1
EndChar

StartChar: Y
Encoding: 57 89 95
Width: 590
VWidth: 0
Flags: MW
LayerCount: 2
Fore
SplineSet
330 0 m 1
 260 0 l 1
 270 330 l 1
 30 720 l 1
 110 720 l 1
 294 390 l 1
 478 720 l 1
 560 720 l 1
 330 330 l 1
 330 0 l 1
EndSplineSet
Validated: 1
EndChar

StartChar: Z
Encoding: 58 90 96
Width: 600
VWidth: 0
Flags: HMW
LayerCount: 2
Fore
SplineSet
138 30 m 1
 550 44 l 1
 550 0 l 1
 50 0 l 1
 50 44 l 1
 477 690 l 1
 60 676 l 1
 60 720 l 1
 530 720 l 1
 530 676 l 1
 138 30 l 1
EndSplineSet
Validated: 1
EndChar

StartChar: a
Encoding: 65 97 97
Width: 482
VWidth: 0
Flags: HMW
LayerCount: 2
Fore
SplineSet
442 0 m 1
 380 0 l 1
 374 25 361 55 361 88 c 1
 317 23 264 -10 181 -10 c 0
 94 -10 28 50 28 140 c 0
 31 305 208 307 357 322 c 1
 357 395 335 458 288 484 c 0
 272 493 262 494 240 494 c 0
 163 494 126 418 65 418 c 1
 65 472 l 1
 134 509 174 530 244 530 c 0
 367 530 428 465 428 335 c 2
 428 126 l 2
 428 81 434 38 442 0 c 1
358 146 m 1
 358 286 l 1
 260 275 187 276 135 237 c 0
 111 219 97 179 97 141 c 0
 97 90 126 39 201 39 c 0
 278 39 324 100 358 146 c 1
EndSplineSet
Validated: 1
EndChar

StartChar: b
Encoding: 66 98 98
Width: 542
VWidth: 0
Flags: HMW
LayerCount: 2
Fore
SplineSet
125 452 m 1
 161 495 221 530 306 530 c 0
 443 530 502 404 502 271 c 0
 502 184 481 121 444 68 c 0
 413 23 365 -10 292 -10 c 0
 225 -10 159 28 136 77 c 1
 115 0 l 1
 65 0 l 1
 65 720 l 1
 130 720 l 1
 125 452 l 1
135 376 m 1
 135 353 135 330 135 307 c 0
 135 164 144 32 283 30 c 0
 376 30 424 172 424 268 c 0
 424 368 381 493 286 493 c 0
 220 493 159 416 135 376 c 1
EndSplineSet
Validated: 1
EndChar

StartChar: c
Encoding: 67 99 99
Width: 482
VWidth: 0
Flags: MW
LayerCount: 2
Fore
SplineSet
40 260 m 0
 40 415 132 530 282 530 c 0
 333 530 389 507 427 492 c 1
 402 424 l 1
 365 440 346 475 310 493 c 0
 300 498 290 500 282 500 c 0
 225 500 194 473 166 440 c 0
 158 431 120 392 120 260 c 0
 120 126 181 23 282 23 c 0
 339 23 377 73 423 90 c 1
 437 24 l 1
 385 1 334 -10 286 -10 c 0
 211 -10 145 17 108 64 c 0
 66 116 40 178 40 260 c 0
EndSplineSet
Validated: 1
EndChar

StartChar: d
Encoding: 68 100 100
Width: 532
VWidth: 0
Flags: HMW
LayerCount: 2
Fore
SplineSet
407 452 m 1
 402 720 l 1
 467 720 l 1
 467 0 l 1
 417 0 l 1
 386 77 l 1
 379 62 371 50 359 40 c 0
 329 14 281 -10 231 -10 c 0
 158 -10 119 23 88 68 c 0
 52 122 30 184 30 271 c 0
 30 404 89 530 226 530 c 0
 311 530 371 495 407 452 c 1
397 376 m 1
 373 416 312 493 246 493 c 0
 225 493 206 485 189 470 c 0
 137 424 109 365 109 268 c 0
 109 172 156 30 249 30 c 0
 388 32 397 164 397 307 c 0
 397 330 397 353 397 376 c 1
EndSplineSet
Validated: 1
EndChar

StartChar: e
Encoding: 69 101 101
Width: 470
VWidth: 0
Flags: HMW
LayerCount: 2
Fore
SplineSet
423 25 m 1
 380 5 344 -11 282 -11 c 0
 163 -11 80 56 44 150 c 0
 31 183 25 220 25 262 c 0
 25 346 49 411 90 457 c 0
 127 502 169 530 235 530 c 0
 372 530 445 435 445 325 c 0
 445 315 349 299 336 298 c 2
 103 264 l 1
 103 189 117 139 161 86 c 0
 188 54 219 25 265 25 c 0
 328 25 343 59 407 89 c 0
 411 89 420 38 423 25 c 1
371 342 m 0
 371 444 311 499 245 499 c 0
 172 499 103 435 103 302 c 1
 131 306 371 328 371 342 c 0
EndSplineSet
Validated: 1
EndChar

StartChar: f
Encoding: 70 102 102
Width: 371
VWidth: 0
Flags: HMW
LayerCount: 2
Fore
SplineSet
346 710 m 1
 337 674 329 662 317 662 c 0
 305 662 289 674 263 688 c 0
 255 692 245 694 236 694 c 0
 175 694 170 647 170 582 c 0
 170 568 170 553 170 538 c 2
 170 530 l 1
 329 530 l 1
 329 496 l 1
 170 496 l 1
 173 0 l 1
 106 0 l 1
 106 496 l 1
 43 496 l 1
 43 519 l 1
 68 520 105 520 106 550 c 1
 106 558 l 2
 106 606 111 630 124 667 c 0
 140 712 180 730 243 730 c 0
 284 730 313 720 346 710 c 1
EndSplineSet
Validated: 1
EndChar

StartChar: g
Encoding: 71 103 103
Width: 556
VWidth: 0
Flags: HMW
LayerCount: 2
Fore
SplineSet
441 452 m 1
 461 427 475 392 475 350 c 0
 475 261 420 211 352 188 c 0
 326 179 298 175 267 175 c 2
 199 175 l 1
 177 164 117 141 117 113 c 0
 117 82 164 79 201 79 c 0
 205 79 209 79 213 79 c 2
 352 79 l 2
 412 79 451 60 481 28 c 0
 496 12 503 -6 504 -36 c 0
 504 -102 463 -154 425 -187 c 0
 380 -226 308 -251 237 -251 c 0
 188 -251 141 -239 102 -213 c 0
 68 -186 45 -160 45 -115 c 0
 45 -47 113 -6 163 18 c 1
 123 20 57 56 57 103 c 0
 57 114 61 127 71 140 c 0
 86 159 124 174 159 191 c 1
 163 191 l 1
 104 218 55 270 55 350 c 0
 55 466 151 530 267 530 c 0
 323 530 369 516 405 488 c 1
 526 530 l 1
 526 476 l 1
 441 452 l 1
192 10 m 0
 177 10 118 -60 118 -107 c 0
 118 -167 172 -217 237 -217 c 0
 313 -217 395 -174 432 -130 c 0
 447 -111 455 -92 455 -73 c 0
 455 -22 379 11 327 11 c 0
 281 11 238 10 192 10 c 0
265 509 m 0
 188 509 130 428 130 351 c 0
 130 274 191 196 268 196 c 2
 342 196 400 275 400 349 c 0
 400 425 340 509 265 509 c 0
EndSplineSet
Validated: 1
EndChar

StartChar: h
Encoding: 72 104 104
Width: 530
VWidth: 0
Flags: HMW
LayerCount: 2
Fore
SplineSet
65 0 m 1
 65 720 l 1
 131 720 l 1
 136 442 l 1
 183 496 260 530 323 530 c 0
 399 530 465 480 465 355 c 2
 465 0 l 1
 387 0 l 1
 387 337 l 2
 387 410 365 493 296 493 c 0
 236 493 169 406 142 376 c 1
 131 0 l 1
 65 0 l 1
EndSplineSet
Validated: 1
EndChar

StartChar: i
Encoding: 73 105 105
Width: 233
VWidth: 0
Flags: HMW
LayerCount: 2
Fore
SplineSet
117 592 m 0
 94 592 75 612 75 634 c 0
 75 656 94 676 117 676 c 0
 139 676 158 656 158 634 c 0
 158 612 139 592 117 592 c 0
153 0 m 1
 84 0 l 1
 84 347 l 1
 81 500 l 1
 155 520 l 1
 153 442 152 364 152 285 c 0
 152 190 153 95 153 0 c 1
EndSplineSet
Validated: 1
EndChar

StartChar: j
Encoding: 74 106 106
Width: 257
VWidth: 0
Flags: MW
LayerCount: 2
Fore
SplineSet
114 -58 m 2
 114 345 l 1
 97 498 l 1
 179 522 l 1
 182 345 l 1
 180 -64 l 2
 180 -174 112 -200 0 -200 c 1
 0 -154 l 1
 1 -154 1 -154 2 -154 c 0
 19 -154 36 -159 52 -159 c 0
 60 -159 68 -158 76 -154 c 0
 101 -144 114 -105 114 -58 c 2
140 591 m 0
 117 591 98 611 98 633 c 0
 98 656 117 675 140 675 c 0
 162 675 182 656 182 633 c 0
 182 611 162 591 140 591 c 0
EndSplineSet
Validated: 1
EndChar

StartChar: k
Encoding: 75 107 107
Width: 460
VWidth: 0
Flags: HMW
LayerCount: 2
Fore
SplineSet
346 0 m 1
 287 83 246 172 201 260 c 1
 136 180 l 1
 131 0 l 1
 65 0 l 1
 65 720 l 1
 130 720 l 1
 136 262 l 1
 236 373 279 439 355 530 c 1
 435 530 l 1
 225 292 l 1
 440 0 l 1
 346 0 l 1
EndSplineSet
Validated: 1
EndChar

StartChar: l
Encoding: 76 108 108
Width: 367
VWidth: 0
Flags: HMW
LayerCount: 2
Fore
SplineSet
108 0 m 1
 108 520 l 1
 108 690 l 1
 50 686 l 1
 50 720 l 1
 175 720 l 1
 178 494 179 264 179 35 c 1
 307 44 l 1
 307 0 l 1
 108 0 l 1
EndSplineSet
Validated: 1
EndChar

StartChar: m
Encoding: 77 109 109
Width: 842
VWidth: 0
Flags: HMW
LayerCount: 2
Fore
SplineSet
466 0 m 1
 395 0 l 1
 395 336 l 2
 395 413 371 486 296 486 c 0
 267 486 240 465 223 450 c 0
 196 426 161 398 135 371 c 1
 132 0 l 1
 66 0 l 1
 65 520 l 1
 116 520 l 1
 137 443 l 1
 182 491 241 530 321 530 c 0
 390 530 434 500 453 440 c 1
 501 489 550 530 632 530 c 0
 730 530 777 469 777 354 c 2
 776 0 l 1
 705 0 l 1
 705 333 l 2
 705 409 683 487 609 487 c 0
 582 487 557 470 541 456 c 0
 515 434 492 407 467 382 c 1
 467 253 466 129 466 0 c 1
EndSplineSet
Validated: 1
EndChar

StartChar: n
Encoding: 78 110 110
Width: 517
VWidth: 0
Flags: HMW
LayerCount: 2
Fore
SplineSet
316 530 m 0
 419 530 462 465 462 357 c 2
 462 0 l 1
 389 0 l 1
 389 332 l 2
 389 411 366 491 290 491 c 0
 260 491 235 471 218 455 c 0
 191 431 164 402 138 375 c 1
 128 0 l 1
 65 0 l 1
 65 520 l 1
 114 520 l 1
 138 442 l 1
 183 490 236 530 316 530 c 0
EndSplineSet
Validated: 1
EndChar

StartChar: o
Encoding: 79 111 111
Width: 533
VWidth: 0
Flags: HMW
LayerCount: 2
Fore
SplineSet
268 -10 m 0
 117 -10 25 101 25 252 c 0
 25 412 109 530 268 530 c 0
 426 530 508 413 508 253 c 0
 508 104 415 -10 268 -10 c 0
268 24 m 0
 371 24 427 154 427 276 c 0
 427 393 382 500 268 500 c 0
 150 500 104 384 104 265 c 0
 104 155 153 24 268 24 c 0
EndSplineSet
Validated: 1
EndChar

StartChar: p
Encoding: 80 112 112
Width: 537
VWidth: 0
Flags: HMW
LayerCount: 2
Fore
SplineSet
130 68 m 1
 130 -270 l 1
 65 -290 l 1
 65 520 l 1
 115 520 l 1
 146 443 l 1
 169 493 234 530 301 530 c 0
 442 530 502 390 502 249 c 0
 502 116 443 -10 306 -10 c 0
 223 -10 165 25 130 68 c 1
135 144 m 1
 144 129 190 82 209 64 c 0
 227 46 253 27 286 27 c 0
 332 27 375 70 396 100 c 0
 418 137 426 195 426 252 c 0
 426 313 413 369 389 408 c 0
 369 439 332 490 283 490 c 0
 144 488 135 276 135 179 c 0
 135 164 135 152 135 144 c 1
EndSplineSet
Validated: 1
EndChar

StartChar: q
Encoding: 81 113 113
Width: 552
VWidth: 0
Flags: HMW
LayerCount: 2
Fore
SplineSet
417 68 m 1
 408 57 386 46 372 34 c 0
 339 9 301 -10 236 -10 c 0
 99 -10 40 116 40 249 c 0
 40 390 100 530 241 530 c 0
 308 530 383 493 406 443 c 1
 427 520 l 1
 477 520 l 1
 477 -290 l 1
 413 -270 l 1
 417 68 l 1
407 144 m 1
 407 156 407 172 407 191 c 0
 407 295 397 488 259 490 c 0
 210 490 175 439 155 408 c 0
 131 369 118 313 118 252 c 0
 118 195 126 137 148 100 c 0
 169 70 210 27 256 27 c 0
 318 27 385 107 407 144 c 1
EndSplineSet
Validated: 1
EndChar

StartChar: r
Encoding: 82 114 114
Width: 339
VWidth: 0
Flags: HMW
LayerCount: 2
Fore
SplineSet
121 446 m 1
 142 488 221 530 279 530 c 0
 293 530 301 529 309 526 c 1
 309 475 l 1
 299 475 283 476 273 476 c 0
 178 476 127 414 127 304 c 0
 127 303 127 302 127 301 c 2
 130 0 l 1
 65 0 l 1
 69 520 l 1
 130 520 l 1
 121 446 l 1
EndSplineSet
Validated: 1
EndChar

StartChar: s
Encoding: 83 115 115
Width: 457
VWidth: 0
Flags: MW
LayerCount: 2
Fore
SplineSet
360 444 m 1
 331 454 305 476 275 486 c 0
 264 490 251 492 237 492 c 0
 207 492 175 484 155 472 c 0
 130 455 117 418 116 390 c 0
 118 344 157 332 197 318 c 0
 275 297 378 273 397 185 c 0
 400 171 402 158 402 145 c 0
 402 39 296 -10 193 -10 c 0
 145 -10 97 0 61 21 c 1
 72 87 l 1
 113 65 152 29 201 28 c 0
 252 28 312 39 329 93 c 0
 334 108 337 122 337 134 c 0
 337 193 279 215 229 232 c 0
 190 249 156 252 123 272 c 0
 83 293 55 333 55 379 c 0
 55 381 55 382 55 384 c 0
 58 491 153 529 250 529 c 0
 295 529 340 521 377 508 c 1
 360 444 l 1
EndSplineSet
Validated: 1
EndChar

StartChar: t
Encoding: 84 116 116
Width: 455
VWidth: 0
Flags: HMW
LayerCount: 2
Fore
SplineSet
430 27 m 1
 383 8 331 -10 268 -10 c 0
 218 -10 180 3 154 30 c 0
 128 57 126 95 126 149 c 2
 126 496 l 1
 40 496 l 1
 40 530 l 1
 126 530 l 1
 166 706 l 1
 195 706 l 1
 195 530 l 1
 386 530 l 1
 386 496 l 1
 195 496 l 1
 195 172 l 2
 195 160 195 147 195 134 c 0
 195 105 197 77 209 62 c 0
 222 45 253 24 280 24 c 0
 307 24 330 36 349 47 c 0
 371 59 395 74 418 86 c 1
 430 27 l 1
EndSplineSet
Validated: 1
EndChar

StartChar: u
Encoding: 85 117 117
Width: 536
VWidth: 0
Flags: MW
LayerCount: 2
Fore
SplineSet
65 520 m 1
 138 520 l 1
 138 181 l 2
 138 106 160 28 233 28 c 0
 299 28 348 106 385 142 c 1
 396 520 l 1
 461 520 l 1
 461 0 l 1
 409 0 l 1
 385 76 l 1
 330 19 271 -10 210 -10 c 0
 113 -10 65 47 65 160 c 2
 65 520 l 1
EndSplineSet
Validated: 1
EndChar

StartChar: v
Encoding: 86 118 118
Width: 524
VWidth: 0
Flags: HMW
LayerCount: 2
Fore
SplineSet
306 0 m 1
 224 0 l 1
 40 520 l 1
 100 520 l 1
 266 75 l 1
 430 520 l 1
 490 520 l 1
 306 0 l 1
EndSplineSet
Validated: 1
EndChar

StartChar: w
Encoding: 87 119 119
Width: 610
VWidth: 0
Flags: HMW
LayerCount: 2
Fore
SplineSet
570 520 m 1
 490 0 l 1
 430 0 l 1
 309 296 l 1
 184 0 l 1
 114 0 l 1
 40 520 l 1
 110 520 l 1
 127 377 164 72 164 72 c 0
 300 362 l 1
 348 362 l 1
 455 83 l 1
 500 520 l 1
 570 520 l 1
EndSplineSet
Validated: 1
EndChar

StartChar: x
Encoding: 88 120 120
Width: 495
VWidth: 0
Flags: MW
LayerCount: 2
Fore
SplineSet
390 0 m 1
 237 216 l 1
 110 0 l 1
 40 0 l 1
 216 266 l 1
 40 520 l 1
 114 520 l 1
 260 310 l 1
 388 520 l 1
 456 520 l 1
 268 266 l 1
 460 0 l 1
 390 0 l 1
EndSplineSet
Validated: 1
EndChar

StartChar: y
Encoding: 89 121 121
Width: 527
VWidth: 0
Flags: HMW
LayerCount: 2
Fore
SplineSet
39 520 m 1
 103 520 l 1
 267 5 l 1
 433 520 l 1
 497 520 l 1
 434 329 376 168 316 -18 c 0
 288 -104 263 -174 210 -236 c 0
 179 -271 146 -290 105 -290 c 0
 65 -290 30 -281 0 -269 c 1
 15 -202 l 1
 30 -207 42 -218 54 -227 c 0
 63 -234 77 -245 91 -245 c 0
 127 -245 148 -228 167 -208 c 0
 198 -174 217 -112 227 -63 c 1
 39 520 l 1
EndSplineSet
Validated: 1
EndChar

StartChar: z
Encoding: 90 122 122
Width: 442
VWidth: 0
Flags: HMW
LayerCount: 2
Fore
SplineSet
140 30 m 1
 387 44 l 1
 387 0 l 1
 63 0 l 1
 63 44 l 1
 323 488 l 1
 73 476 l 1
 73 520 l 1
 389 520 l 1
 389 476 l 1
 140 30 l 1
EndSplineSet
Validated: 1
EndChar

StartChar: asciicircum
Encoding: 62 94 125
Width: 382
VWidth: 0
Flags: MW
LayerCount: 2
Fore
SplineSet
190 664 m 1
 78 590 l 1
 60 625 l 1
 190 721 l 1
 322 625 l 1
 305 590 l 1
 190 664 l 1
EndSplineSet
Validated: 1
EndChar

StartChar: grave
Encoding: 64 96 126
Width: 314
VWidth: 0
Flags: MW
LayerCount: 2
Fore
SplineSet
198 581 m 1
 165 612 123 653 90 700 c 1
 145 730 l 1
 224 600 l 1
 198 581 l 1
EndSplineSet
Validated: 1
EndChar

StartChar: uni02CB
Encoding: 427 715 134
Width: 314
VWidth: 0
Flags: MW
LayerCount: 2
Fore
SplineSet
198 581 m 1
 165 612 123 653 90 700 c 1
 145 730 l 1
 224 600 l 1
 198 581 l 1
EndSplineSet
Validated: 1
EndChar

StartChar: uni02CA
Encoding: 426 714 135
Width: 314
VWidth: 0
Flags: MW
LayerCount: 2
Fore
SplineSet
116 581 m 1
 90 600 l 1
 169 730 l 1
 224 700 l 1
 191 653 149 612 116 581 c 1
EndSplineSet
Validated: 1
EndChar

StartChar: uni02B9
Encoding: 416 697 136
Width: 143
VWidth: 0
Flags: MW
LayerCount: 2
Fore
SplineSet
40 750 m 1
 40 816 l 1
 43 920 l 1
 103 920 l 1
 76 750 l 1
 40 750 l 1
EndSplineSet
Validated: 1
EndChar

StartChar: uni02BB
Encoding: 418 699 138
Width: 179
VWidth: 0
Flags: MW
LayerCount: 2
Fore
SplineSet
94 569 m 0
 64 569 40 599 40 630 c 0
 40 681 68 721 125 750 c 1
 135 732 l 1
 111 720 93 697 93 666 c 1
 117 663 139 643 139 616 c 0
 139 590 121 569 94 569 c 0
EndSplineSet
Validated: 1
EndChar

StartChar: uni02BC
Encoding: 419 700 139
Width: 179
VWidth: 0
Flags: MW
LayerCount: 2
Fore
SplineSet
85 750 m 0
 115 750 139 720 139 689 c 0
 139 638 111 598 54 569 c 1
 44 587 l 1
 68 599 86 622 86 653 c 1
 62 656 40 676 40 703 c 0
 40 729 58 750 85 750 c 0
EndSplineSet
Validated: 1
EndChar

StartChar: uni02BD
Encoding: 420 701 140
Width: 179
VWidth: 0
Flags: MW
LayerCount: 2
Fore
SplineSet
94 750 m 0
 121 750 139 729 139 703 c 0
 139 676 117 656 93 653 c 1
 93 622 111 599 135 587 c 1
 125 569 l 1
 68 598 40 638 40 689 c 0
 40 720 64 750 94 750 c 0
EndSplineSet
Validated: 1
EndChar

StartChar: uni02BE
Encoding: 421 702 141
Width: 153
VWidth: 0
Flags: MW
LayerCount: 2
Fore
SplineSet
41 757 m 0
 61 757 82 778 82 806 c 0
 82 830 66 857 40 857 c 0
 41 864 l 0
 76 864 113 843 113 806 c 0
 113 769 75 750 40 750 c 0
 41 757 l 0
EndSplineSet
Validated: 1
EndChar

StartChar: uni02BF
Encoding: 422 703 142
Width: 152
VWidth: 0
Flags: MW
LayerCount: 2
Fore
SplineSet
110 750 m 0
 68 750 40 778 40 807 c 0
 40 837 69 864 111 864 c 0
 110 857 l 0
 84 857 69 831 69 807 c 0
 69 778 92 757 112 757 c 0
 110 750 l 0
EndSplineSet
Validated: 1
EndChar

StartChar: circumflex
Encoding: 423 710 143
Width: 382
VWidth: 0
Flags: MW
LayerCount: 2
Fore
SplineSet
190 664 m 1
 78 590 l 1
 60 625 l 1
 190 721 l 1
 322 625 l 1
 305 590 l 1
 190 664 l 1
EndSplineSet
Validated: 1
EndChar

StartChar: caron
Encoding: 424 711 144
Width: 382
VWidth: 0
Flags: MW
LayerCount: 2
Fore
SplineSet
190 647 m 1
 305 721 l 1
 322 686 l 1
 190 590 l 1
 60 686 l 1
 78 721 l 1
 190 647 l 1
EndSplineSet
Validated: 1
EndChar

StartChar: uni02C9
Encoding: 425 713 145
Width: 254
VWidth: 0
Flags: MW
LayerCount: 2
Fore
SplineSet
40 750 m 1
 40 790 l 1
 214 790 l 1
 214 750 l 1
 40 750 l 1
EndSplineSet
Validated: 1
EndChar

StartChar: breve
Encoding: 428 728 146
Width: 291
VWidth: 0
Flags: MW
LayerCount: 2
Fore
SplineSet
241 837 m 0
 241 775 187 750 144 750 c 0
 94 750 50 779 50 836 c 0
 50 837 50 837 50 838 c 0
 84 838 l 1
 84 800 115 780 146 780 c 0
 176 780 205 799 205 837 c 1
 241 837 l 0
EndSplineSet
Validated: 1
EndChar

StartChar: dotaccent
Encoding: 429 729 147
Width: 170
VWidth: 0
Flags: MW
LayerCount: 2
Fore
SplineSet
85 750 m 0
 61 750 40 771 40 795 c 0
 40 819 61 840 85 840 c 0
 109 840 130 819 130 795 c 0
 130 771 109 750 85 750 c 0
EndSplineSet
Validated: 1
EndChar

StartChar: ring
Encoding: 430 730 148
Width: 291
VWidth: 0
Flags: MW
LayerCount: 2
Fore
SplineSet
231 817 m 0
 231 772 187 750 144 750 c 0
 93 750 60 783 60 818 c 0
 60 854 94 886 145 886 c 0
 187 886 231 861 231 817 c 0
144 878 m 0
 112 878 94 847 94 818 c 0
 94 783 122 758 146 758 c 0
 169 758 195 783 195 817 c 0
 195 846 175 878 144 878 c 0
EndSplineSet
Validated: 1
EndChar

StartChar: tilde
Encoding: 432 732 149
Width: 396
VWidth: 0
Flags: MW
LayerCount: 2
Fore
SplineSet
336 860 m 1
 336 859 336 857 336 855 c 0
 336 798 316 756 260 756 c 1
 206 756 186 821 142 821 c 0
 118 821 113 771 110 750 c 1
 60 750 l 1
 60 752 60 755 60 757 c 0
 60 811 85 859 136 859 c 0
 191 859 206 793 253 793 c 0
 275 793 283 837 284 860 c 1
 336 860 l 1
EndSplineSet
Validated: 1
EndChar

StartChar: ogonek
Encoding: 431 731 150
Width: 337
VWidth: 0
Flags: MW
LayerCount: 2
Fore
SplineSet
180 14 m 1
 212 22 l 1
 247 -44 l 1
 211 -45 95 -54 60 -66 c 1
 83 -105 137 -116 192 -116 c 0
 230 -116 268 -111 296 -106 c 1
 297 -162 l 1
 284 -165 267 -166 248 -166 c 0
 164 -166 40 -137 40 -70 c 0
 40 -29 155 -10 187 0 c 1
 180 14 l 1
EndSplineSet
Validated: 1
EndChar

StartChar: hungarumlaut
Encoding: 433 733 151
Width: 346
VWidth: 0
Flags: MW
LayerCount: 2
Fore
SplineSet
306 847 m 1
 160 751 l 1
 271 918 l 1
 306 847 l 1
185 847 m 1
 40 751 l 1
 151 918 l 1
 185 847 l 1
EndSplineSet
Validated: 1
EndChar

StartChar: uni02EE
Encoding: 434 750 152
Width: 359
VWidth: 0
Flags: MW
LayerCount: 2
Fore
SplineSet
255 750 m 0
 285 750 309 720 309 689 c 0
 309 638 281 598 224 569 c 1
 214 587 l 1
 238 599 256 622 256 653 c 1
 232 656 210 676 210 703 c 0
 210 729 228 750 255 750 c 0
85 750 m 0
 115 750 139 720 139 689 c 0
 139 638 111 598 54 569 c 1
 44 587 l 1
 68 599 86 622 86 653 c 1
 62 656 40 676 40 703 c 0
 40 729 58 750 85 750 c 0
EndSplineSet
Validated: 1
EndChar

StartChar: uni02F5
Encoding: 435 757 154
Width: 346
VWidth: 0
Flags: MW
LayerCount: 2
Fore
SplineSet
40 847 m 1
 75 918 l 1
 186 751 l 1
 40 847 l 1
161 847 m 1
 195 918 l 1
 306 751 l 1
 161 847 l 1
EndSplineSet
Validated: 1
EndChar

StartChar: ae
Encoding: 163 230 160
Width: 872
VWidth: 0
Flags: MW
LayerCount: 2
Fore
SplineSet
216 39 m 0
 289 41 335 101 368 146 c 1
 368 286 l 1
 270 275 197 276 145 237 c 0
 121 219 107 179 107 141 c 0
 107 90 136 39 211 39 c 0
 213 39 214 39 216 39 c 0
452 0 m 1
 380 0 l 1
 374 25 361 55 361 88 c 1
 317 23 274 -10 191 -10 c 0
 104 -10 38 50 38 140 c 0
 41 305 219 307 368 322 c 1
 368 395 345 458 298 484 c 0
 282 493 262 499 240 499 c 0
 177 499 131 447 97 425 c 1
 65 475 l 1
 134 512 184 530 254 530 c 0
 347 530 405 493 427 418 c 1
 435 432 445 445 455 457 c 0
 492 502 544 530 610 530 c 0
 747 530 820 449 820 315 c 2
 820 310 l 1
 475 274 l 1
 475 199 482 139 526 86 c 0
 553 54 584 25 630 25 c 0
 636 25 642 25 648 26 c 0
 694 33 714 62 772 89 c 0
 776 89 785 38 788 25 c 1
 745 5 709 -11 647 -11 c 0
 554 -11 483 30 439 93 c 1
 441 60 446 29 452 0 c 1
750 338 m 2
 750 340 750 341 750 343 c 0
 750 445 686 499 620 499 c 0
 547 499 478 435 478 302 c 1
 750 338 l 2
EndSplineSet
Validated: 1
EndChar

StartChar: AE
Encoding: 131 198 161
Width: 881
VWidth: 0
Flags: MW
LayerCount: 2
Fore
SplineSet
475 0 m 1
 431 0 l 1
 431 250 l 1
 250 250 l 1
 130 0 l 1
 40 0 l 1
 200 300 l 1
 415 720 l 1
 431 720 l 1
 465 720 l 1
 817 720 l 1
 817 684 l 1
 511 690 l 1
 511 382 l 1
 761 384 l 1
 761 350 l 1
 511 352 l 1
 515 30 l 1
 821 34 l 1
 821 0 l 1
 475 0 l 1
431 627 m 1
 280 300 l 1
 430 300 l 1
 431 349 l 1
 431 627 l 1
EndSplineSet
Validated: 1
EndChar

StartChar: Ccedilla
Encoding: 132 199 162
Width: 566
VWidth: 0
Flags: HM
LayerCount: 2
Fore
SplineSet
307 -10 m 1
 300 -56 l 1
 352 -69 429 -74 447 -124 c 0
 449 -130 450 -136 450 -142 c 0
 450 -168 428 -188 412 -198 c 0
 371 -224 310 -240 246 -240 c 0
 232 -240 218 -240 204 -238 c 0
 199 -238 195 -237 190 -236 c 1
 191 -180 l 1
 222 -185 256 -189 291 -189 c 0
 311 -189 330 -188 349 -185 c 0
 381 -181 416 -167 417 -130 c 1
 403 -120 387 -113 371 -109 c 0
 330 -98 285 -102 240 -98 c 1
 273 -8 l 1
 70 15 20 184 20 374 c 0
 20 540 92 730 312 730 c 0
 387 730 464 718 522 680 c 1
 492 616 l 1
 426 653 386 700 321 700 c 0
 194 700 100 571 100 378 c 0
 100 209 140 22 318 22 c 0
 348 22 373 27 386 30 c 0
 412 36 466 89 510 112 c 1
 536 46 l 1
 476 6 400 -10 322 -10 c 2
 320 -10 l 1
 307 -10 l 1
EndSplineSet
Validated: 1
EndChar

StartChar: ccedilla
Encoding: 164 231 163
Width: 482
VWidth: 0
InSpiro: 1
Flags: M
LayerCount: 2
Fore
SplineSet
272 -10 m 1
 265 -56 l 1
 317 -69 394 -74 412 -124 c 0
 414 -130 415 -136 415 -142 c 0
 415 -168 393 -188 377 -198 c 0
 336 -224 275 -240 211 -240 c 0
 197 -240 183 -240 169 -238 c 0
 164 -238 160 -237 155 -236 c 1
 156 -180 l 1
 187 -185 221 -189 256 -189 c 0
 311 -189 381 -185 382 -130 c 1
 368 -120 352 -113 336 -109 c 0
 295 -98 250 -102 205 -98 c 1
 238 -6 l 1
 184 3 137 27 108 64 c 0
 66 116 40 178 40 260 c 0
 40 415 132 530 282 530 c 0
 333 530 389 507 427 492 c 1
 402 424 l 1
 365 440 346 475 310 493 c 0
 300 498 290 500 282 500 c 0
 225 500 194 473 166 440 c 0
 158 431 120 392 120 260 c 0
 120 126 181 23 282 23 c 0
 339 23 377 73 423 90 c 1
 437 24 l 1
 385 1 334 -10 286 -10 c 0
 281 -10 277 -10 272 -10 c 1
  Spiro
    272 -9.7334 v
    265 -55.7334 v
    322.163 -68.0161 o
    377.492 -86.7963 o
    412 -123.733 o
    414.25 -132.733 o
    415 -141.733 o
    408.715 -165.564 o
    393.946 -184.564 o
    377 -197.733 o
    330.015 -220.159 o
    273.31 -234.632 o
    211 -239.733 o
    197.014 -239.66 o
    182.986 -239.14 o
    169 -237.733 o
    164.264 -237.438 o
    159.736 -236.695 o
    155 -235.733 v
    156 -179.733 v
    187.893 -184.285 o
    221.442 -187.514 o
    256 -188.733 o
    275.684 -188.364 o
    294.982 -187.102 o
    314 -184.733 o
    345.6 -176.931 o
    371.057 -159.525 o
    382 -129.733 v
    367.423 -120.741 o
    351.91 -113.727 o
    336 -108.733 o
    293.858 -101.885 o
    249.807 -99.9174 o
    205 -97.7334 v
    238.367 -6.21118 v
    186.685 7.789 o
    142.434 31.4875 o
    108 64 o
    71.7339 119.644 o
    48.2801 184.366 o
    40 260 o
    69.3499 398.769 o
    152.7 494.513 o
    282 530 o
    333.763 523.493 o
    383.899 508.502 o
    427 492 v
    402 424 v
    369.733 444.975 o
    341.601 470.692 o
    310 493 o
    300.084 497.034 o
    290.583 499.298 o
    282 500 o
    232.857 491.793 o
    195.819 470.196 o
    166 440 o
    150.539 418.703 o
    130.13 363.256 o
    120 260 o
    139.517 139.105 o
    195.183 54.606 o
    282 23 o
    333.619 36.5685 o
    378.71 65.1039 o
    423 90 v
    437 24 v
    385.459 4.97808 o
    334.876 -6.30374 o
    286 -10 o
    281.23 -9.96347 o
    276.471 -9.85372 o
    271.754 -9.67181 [
    0 0 z
  EndSpiro
EndSplineSet
Validated: 1
EndChar

StartChar: dotlessi
Encoding: 238 305 173
Width: 225
VWidth: 0
Flags: MW
LayerCount: 2
Fore
SplineSet
155 0 m 1
 86 0 l 1
 86 347 l 1
 71 500 l 1
 151 523 l 1
 154 347 l 1
 155 0 l 1
EndSplineSet
Validated: 1
EndChar

StartChar: Oslash
Encoding: 149 216 194
Width: 670
VWidth: 0
Flags: MW
LayerCount: 2
Fore
SplineSet
537 720 m 1
 605 720 l 1
 549 633 l 1
 602 563 620 465 620 369 c 2
 620 364 l 2
 620 305 614 249 603 201 c 0
 575 73 470 -10 338 -10 c 2
 336 -10 l 2
 300 -10 244 1 213 14 c 0
 196 22 182 31 168 41 c 1
 142 0 l 1
 76 0 l 1
 127 80 l 1
 63 155 51 261 50 362 c 0
 52 555 107 724 335 730 c 0
 410 730 466 709 509 676 c 1
 537 720 l 1
542 350 m 0
 542 408 536 461 528 497 c 0
 523 520 516 544 507 567 c 1
 198 87 l 1
 229 49 274 26 335 26 c 0
 502 26 542 203 542 350 c 0
165 139 m 1
 476 624 l 1
 446 665 403 694 336 694 c 0
 203 694 162 586 142 497 c 0
 134 452 128 398 128 344 c 0
 128 272 138 197 165 139 c 1
EndSplineSet
Validated: 1
EndChar

StartChar: oslash
Encoding: 181 248 195
Width: 623
VWidth: 0
Flags: MW
LayerCount: 2
Fore
SplineSet
520 520 m 1
 588 520 l 1
 506 433 l 1
 537 385 553 323 553 253 c 0
 553 104 460 -10 313 -10 c 0
 245 -10 189 12 148 51 c 1
 101 0 l 1
 35 0 l 1
 117 88 l 1
 86 132 70 188 70 252 c 0
 70 412 154 530 313 530 c 0
 381 530 435 508 474 471 c 1
 520 520 l 1
313 24 m 0
 416 24 472 154 472 276 c 0
 472 313 468 349 458 381 c 1
 192 97 l 1
 218 54 258 24 313 24 c 0
169 144 m 1
 436 430 l 1
 411 473 371 500 313 500 c 0
 195 500 149 384 149 265 c 0
 149 225 155 182 169 144 c 1
EndSplineSet
Validated: 1
EndChar

StartChar: germandbls
Encoding: 156 223 206
Width: 594
VWidth: 0
Flags: MW
LayerCount: 2
Fore
SplineSet
120 0 m 1
 40 0 l 1
 40 538 l 1
 43 710 182 730 244 730 c 0
 354 730 413 697 413 616 c 0
 413 455 220 531 220 430 c 0
 220 413 234 408 255 408 c 0
 289 408 340 420 391 420 c 0
 448 420 503 406 530 345 c 0
 547 307 555 266 555 225 c 0
 555 105 485 -10 348 -10 c 0
 299 -10 255 2 214 20 c 1
 234 89 l 1
 273 70 311 41 348 30 c 0
 355 28 361 27 368 27 c 0
 430 27 490 114 490 211 c 0
 490 249 481 289 458 325 c 0
 442 350 401 354 353 354 c 0
 335 354 316 353 298 353 c 0
 229 353 164 360 164 428 c 1
 164 530 297 510 344 570 c 0
 354 582 359 598 359 613 c 0
 359 655 322 700 244 700 c 0
 144 700 122 644 120 538 c 1
 120 0 l 1
EndSplineSet
Validated: 1
EndChar

StartChar: Aogonek
Encoding: 193 260 211
Width: 650
VWidth: 0
Flags: M
LayerCount: 2
Fore
SplineSet
322 640 m 1
 214 300 l 1
 436 300 l 1
 322 640 l 1
557 0 m 1
 588 -58 l 1
 552 -59 436 -68 401 -80 c 1
 424 -119 478 -130 533 -130 c 0
 571 -130 609 -125 637 -120 c 1
 638 -176 l 1
 625 -179 608 -180 589 -180 c 0
 505 -180 381 -151 381 -84 c 0
 381 -43 492 -26 524 -16 c 1
 500 76 475 168 450 260 c 1
 200 260 l 1
 130 0 l 1
 40 0 l 1
 73 109 113 201 150 300 c 1
 300 720 l 1
 350 720 l 1
 500 300 l 1
 610 0 l 1
 557 0 l 1
EndSplineSet
Validated: 1
EndChar

StartChar: aogonek
Encoding: 194 261 212
Width: 512
VWidth: 0
Flags: MW
LayerCount: 2
Fore
SplineSet
368 146 m 1
 368 286 l 1
 270 275 197 276 145 237 c 0
 121 219 107 179 107 141 c 0
 107 90 136 39 211 39 c 0
 288 39 334 100 368 146 c 1
361 88 m 1
 317 23 274 -10 191 -10 c 0
 104 -10 38 50 38 140 c 0
 41 305 218 307 367 322 c 1
 367 395 345 458 298 484 c 0
 282 493 262 494 240 494 c 0
 177 494 121 427 87 405 c 1
 65 405 l 1
 65 472 l 1
 134 509 184 530 254 530 c 0
 377 530 438 465 438 335 c 2
 438 126 l 2
 438 81 444 38 452 0 c 1
 416 0 l 1
 447 -58 l 1
 411 -59 295 -68 260 -80 c 1
 283 -119 337 -130 392 -130 c 0
 430 -130 468 -125 496 -120 c 1
 497 -176 l 1
 484 -179 467 -180 448 -180 c 0
 364 -180 240 -151 240 -84 c 0
 240 -43 355 -24 387 -14 c 1
 375 11 361 50 361 88 c 1
EndSplineSet
Validated: 1
EndChar

StartChar: Eogonek
Encoding: 213 280 229
Width: 530
VWidth: 0
Flags: M
LayerCount: 2
Fore
SplineSet
80 0 m 1
 80 720 l 1
 466 720 l 1
 466 684 l 1
 160 690 l 1
 160 382 l 1
 410 384 l 1
 410 350 l 1
 160 352 l 1
 164 30 l 1
 470 41 l 1
 470 0 l 1
 311 0 l 1
 342 -58 l 1
 306 -59 190 -68 155 -80 c 1
 178 -119 232 -130 287 -130 c 0
 325 -130 363 -125 391 -120 c 1
 392 -176 l 1
 379 -179 362 -180 343 -180 c 0
 259 -180 135 -151 135 -84 c 0
 135 -43 250 -24 282 -14 c 1
 275 0 l 1
 80 0 l 1
EndSplineSet
Validated: 1
EndChar

StartChar: eogonek
Encoding: 214 281 230
Width: 522
VWidth: 0
Flags: M
LayerCount: 2
Fore
SplineSet
386 342 m 0
 386 444 326 499 260 499 c 0
 187 499 118 435 118 302 c 1
 146 306 386 328 386 342 c 0
59 150 m 0
 46 183 40 220 40 262 c 0
 40 346 64 411 105 457 c 0
 142 502 184 530 250 530 c 0
 387 530 460 435 460 325 c 0
 460 315 364 299 351 298 c 2
 118 264 l 1
 118 189 132 139 176 86 c 0
 203 54 234 25 280 25 c 0
 343 25 358 59 422 89 c 0
 426 89 435 38 438 25 c 1
 400 7 367 -7 317 -10 c 1
 348 -69 l 1
 312 -70 196 -79 161 -91 c 1
 184 -130 238 -141 293 -141 c 0
 331 -141 369 -136 397 -131 c 1
 398 -187 l 1
 385 -190 368 -191 349 -191 c 0
 265 -191 141 -162 141 -95 c 0
 141 -54 256 -35 288 -25 c 1
 281 -11 l 1
 171 -5 93 60 59 150 c 0
EndSplineSet
Validated: 1
EndChar

StartChar: Iogonek
Encoding: 235 302 249
Width: 364
VWidth: 0
Flags: M
LayerCount: 2
Fore
SplineSet
50 34 m 1
 142 30 l 1
 142 690 l 1
 50 683 l 1
 50 720 l 1
 314 720 l 1
 314 683 l 1
 222 690 l 1
 222 30 l 1
 314 34 l 1
 314 0 l 1
 202 0 l 1
 233 -58 l 1
 197 -59 81 -68 46 -80 c 1
 69 -119 123 -130 178 -130 c 0
 216 -130 254 -125 282 -120 c 1
 283 -176 l 1
 270 -179 253 -180 234 -180 c 0
 150 -180 26 -151 26 -84 c 0
 26 -43 141 -24 173 -14 c 1
 166 0 l 1
 50 0 l 1
 50 34 l 1
EndSplineSet
Validated: 1
EndChar

StartChar: iogonek
Encoding: 236 303 250
Width: 245
VWidth: 0
Flags: MW
LayerCount: 2
Fore
SplineSet
122 592 m 0
 99 592 80 612 80 634 c 0
 80 656 99 676 122 676 c 0
 144 676 163 656 163 634 c 0
 163 612 144 592 122 592 c 0
151 0 m 1
 182 -58 l 1
 146 -59 30 -68 -6 -80 c 1
 18 -119 72 -130 126 -130 c 0
 164 -130 202 -125 230 -120 c 1
 232 -176 l 1
 218 -179 202 -180 182 -180 c 0
 98 -180 -26 -151 -26 -84 c 0
 -26 -43 90 -24 122 -14 c 1
 115 0 l 1
 96 0 l 1
 96 347 l 1
 81 500 l 1
 161 523 l 1
 164 347 l 1
 165 0 l 1
 151 0 l 1
EndSplineSet
Validated: 1
EndChar

StartChar: jcircumflex
Encoding: 242 309 253
Width: 267
VWidth: 0
Flags: HM
LayerCount: 2
Fore
SplineSet
114 -58 m 0
 114 -36 114 -13 114 9 c 0
 114 73 115 138 115 202 c 0
 115 307 112 408 97 498 c 1
 179 522 l 1
 182 345 l 1
 180 -64 l 2
 180 -174 112 -200 0 -200 c 1
 0 -154 l 1
 18 -154 34 -159 51 -159 c 0
 99 -159 114 -116 114 -58 c 0
EndSplineSet
Refer: 143 710 N 1 0 0 1 -51 -10 2
Validated: 1
EndChar

StartChar: Scedilla
Encoding: 283 350 287
Width: 590
VWidth: 0
Flags: HM
LayerCount: 2
Fore
SplineSet
267 -56 m 1
 319 -69 396 -74 414 -124 c 0
 416 -130 417 -136 417 -142 c 0
 417 -168 395 -188 379 -198 c 0
 338 -224 277 -240 213 -240 c 0
 199 -240 185 -240 171 -238 c 0
 166 -238 162 -237 157 -236 c 1
 158 -180 l 1
 189 -185 223 -189 258 -189 c 0
 278 -189 297 -188 316 -185 c 0
 348 -181 383 -167 384 -130 c 1
 370 -120 354 -113 338 -109 c 0
 297 -98 252 -102 207 -98 c 1
 239 -10 l 1
 179 -8 119 2 66 27 c 1
 91 94 l 1
 134 60 211 30 284 30 c 0
 370 30 450 72 458 199 c 0
 458 201 458 204 458 206 c 0
 458 328 247 349 154 410 c 0
 104 443 54 488 54 542 c 0
 54 672 186 730 325 730 c 0
 384 730 440 724 491 709 c 1
 460 644 l 1
 404 667 348 690 291 690 c 0
 251 690 210 678 170 646 c 0
 145 626 128 576 128 547 c 0
 128 428 411 416 491 316 c 0
 519 282 534 250 534 210 c 0
 534 72 411 -5 274 -10 c 1
 267 -56 l 1
EndSplineSet
Validated: 1
EndChar

StartChar: scedilla
Encoding: 284 351 288
Width: 457
VWidth: 0
Flags: MW
LayerCount: 2
Fore
SplineSet
202 -56 m 1
 254 -69 331 -74 349 -124 c 0
 351 -130 352 -136 352 -142 c 0
 352 -168 330 -188 314 -198 c 0
 273 -224 212 -240 148 -240 c 0
 134 -240 120 -240 106 -238 c 0
 101 -238 97 -237 92 -236 c 1
 93 -180 l 1
 124 -185 158 -189 193 -189 c 0
 213 -189 232 -188 251 -185 c 0
 283 -181 318 -167 319 -130 c 1
 305 -120 289 -113 273 -109 c 0
 232 -98 187 -102 142 -98 c 1
 174 -9 l 1
 133 -7 92 3 61 21 c 1
 72 87 l 1
 113 65 152 29 201 28 c 0
 252 28 312 39 329 93 c 0
 334 108 337 122 337 134 c 0
 337 193 279 215 229 232 c 0
 190 249 156 252 123 272 c 0
 83 293 55 333 55 379 c 0
 55 381 55 382 55 384 c 0
 58 491 153 529 250 529 c 0
 295 529 340 521 377 508 c 1
 360 444 l 1
 331 454 305 476 275 486 c 0
 264 490 251 492 237 492 c 0
 207 492 175 484 155 472 c 0
 130 455 117 418 116 390 c 0
 118 344 157 332 197 318 c 0
 275 297 378 273 397 185 c 0
 400 171 402 158 402 145 c 0
 402 44 306 -5 209 -10 c 1
 202 -56 l 1
EndSplineSet
Validated: 1
EndChar

StartChar: uni0162
Encoding: 287 354 291
Width: 600
VWidth: 0
Flags: M
LayerCount: 2
Fore
SplineSet
316 0 m 1
 309 -46 l 1
 361 -59 438 -64 456 -114 c 0
 458 -120 459 -126 459 -132 c 0
 459 -158 437 -178 421 -188 c 0
 380 -214 319 -230 255 -230 c 0
 241 -230 227 -230 213 -228 c 0
 208 -228 204 -227 199 -226 c 1
 200 -170 l 1
 231 -175 265 -179 300 -179 c 0
 320 -179 339 -178 358 -175 c 0
 390 -171 425 -157 426 -120 c 1
 412 -110 396 -103 380 -99 c 0
 339 -88 294 -92 249 -88 c 1
 281 0 l 1
 260 0 l 1
 264 690 l 1
 30 676 l 1
 30 720 l 1
 570 720 l 1
 570 676 l 1
 336 690 l 1
 340 0 l 1
 316 0 l 1
EndSplineSet
Validated: 1
EndChar

StartChar: uni0163
Encoding: 288 355 292
Width: 474
VWidth: 0
Flags: M
LayerCount: 2
Fore
SplineSet
284 -11 m 1
 277 -57 l 1
 329 -70 406 -75 424 -125 c 0
 426 -131 427 -137 427 -143 c 0
 427 -169 405 -189 389 -199 c 0
 348 -225 287 -241 223 -241 c 0
 209 -241 195 -241 181 -239 c 0
 176 -239 172 -238 167 -237 c 1
 168 -181 l 1
 199 -186 233 -190 268 -190 c 0
 288 -190 307 -189 326 -186 c 0
 358 -182 393 -168 394 -131 c 1
 380 -121 364 -114 348 -110 c 0
 307 -99 262 -103 217 -99 c 1
 250 -9 l 1
 209 -6 177 6 154 30 c 0
 128 57 120 95 120 149 c 2
 120 496 l 1
 40 496 l 1
 10 530 l 1
 120 530 l 1
 166 706 l 1
 196 706 l 1
 196 530 l 1
 390 530 l 1
 390 496 l 1
 196 496 l 1
 195 172 l 2
 195 134 198 83 216 62 c 0
 229 45 257 24 284 24 c 0
 311 24 334 36 353 47 c 0
 375 59 399 74 422 86 c 1
 434 27 l 1
 390 9 338 -8 280 -10 c 1
 284 -11 l 1
EndSplineSet
Validated: 1
EndChar

StartChar: Eng
Encoding: 263 330 303
Width: 670
VWidth: 0
Flags: MW
LayerCount: 2
Fore
SplineSet
516 720 m 1
 590 720 l 1
 590 -62 l 2
 590 -173 531 -260 409 -260 c 0
 339 -259 269 -241 213 -204 c 1
 239 -138 l 1
 296 -168 339 -220 390 -220 c 0
 435 -220 528 -183 528 -60 c 1
 526 -48 l 1
 479 38 l 1
 140 642 l 1
 160 0 l 1
 80 0 l 1
 80 720 l 1
 164 720 l 1
 530 90 l 1
 516 720 l 1
EndSplineSet
Validated: 1
EndChar

StartChar: eng
Encoding: 264 331 304
Width: 552
VWidth: 0
Flags: MW
LayerCount: 2
Fore
SplineSet
331 530 m 0
 434 530 477 465 477 357 c 2
 477 -64 l 2
 477 -174 398 -200 286 -200 c 1
 286 -154 l 2
 287 -154 287 -154 288 -154 c 0
 305 -154 322 -159 338 -159 c 0
 346 -159 354 -158 362 -154 c 0
 387 -144 400 -105 400 -58 c 0
 400 72 400 202 400 332 c 0
 400 411 381 491 305 491 c 0
 275 491 250 471 233 455 c 0
 206 431 179 402 153 375 c 1
 143 0 l 1
 75 0 l 1
 75 520 l 1
 129 520 l 1
 153 442 l 1
 198 490 251 530 331 530 c 0
EndSplineSet
Validated: 1
EndChar

StartChar: OE
Encoding: 271 338 305
Width: 1000
VWidth: 0
Flags: MW
LayerCount: 2
Fore
SplineSet
542 350 m 0
 542 408 536 461 528 497 c 0
 507 585 465 694 336 694 c 0
 203 694 162 586 142 497 c 0
 134 452 128 398 128 344 c 0
 128 189 173 26 335 26 c 0
 502 26 542 203 542 350 c 0
550 88 m 1
 501 26 425 -10 338 -10 c 2
 336 -10 l 2
 300 -10 244 1 213 14 c 0
 72 82 52 226 50 362 c 0
 52 555 107 724 335 730 c 0
 438 730 506 691 550 632 c 1
 550 720 l 1
 936 720 l 1
 936 684 l 1
 630 690 l 1
 630 382 l 1
 880 384 l 1
 880 350 l 1
 630 352 l 1
 634 30 l 1
 940 34 l 1
 940 0 l 1
 550 0 l 1
 550 88 l 1
EndSplineSet
Validated: 1
EndChar

StartChar: oe
Encoding: 272 339 306
Width: 915
VWidth: 0
Flags: MW
LayerCount: 2
Fore
SplineSet
278 24 m 0
 381 24 437 154 437 276 c 0
 437 393 392 500 278 500 c 0
 160 500 114 384 114 265 c 0
 114 155 163 24 278 24 c 0
278 -10 m 0
 127 -10 35 101 35 252 c 0
 35 412 119 530 278 530 c 0
 378 530 447 483 485 409 c 1
 494 427 505 443 518 457 c 0
 555 502 597 530 663 530 c 0
 800 530 873 435 873 325 c 0
 873 315 777 299 764 298 c 2
 531 264 l 1
 531 189 545 139 589 86 c 0
 616 54 647 25 693 25 c 0
 699 25 705 25 711 26 c 0
 757 33 777 62 835 89 c 0
 839 89 848 38 851 25 c 1
 808 5 772 -11 710 -11 c 0
 606 -11 529 41 487 117 c 1
 449 40 375 -10 278 -10 c 0
799 342 m 0
 799 444 739 499 673 499 c 0
 600 499 531 435 531 302 c 1
 559 306 799 328 799 342 c 0
EndSplineSet
Validated: 1
EndChar

StartChar: Uogonek
Encoding: 303 370 309
Width: 640
VWidth: 0
Flags: M
LayerCount: 2
Fore
SplineSet
344 -9 m 1
 375 -68 l 1
 339 -69 223 -78 188 -90 c 1
 211 -129 265 -140 320 -140 c 0
 358 -140 396 -135 424 -130 c 1
 425 -186 l 1
 412 -189 395 -190 376 -190 c 0
 292 -190 168 -161 168 -94 c 0
 168 -53 283 -34 315 -24 c 1
 308 -10 l 1
 177 -4 80 76 80 230 c 2
 80 720 l 1
 160 720 l 1
 160 701 l 2
 160 621 154 367 154 234 c 0
 154 193 154 164 156 154 c 0
 165 90 251 30 324 30 c 0
 398 30 474 88 484 154 c 0
 485 164 486 193 486 234 c 0
 486 373 480 644 480 710 c 2
 480 720 l 1
 560 720 l 1
 560 230 l 2
 560 87 473 -1 344 -9 c 1
EndSplineSet
Validated: 1
EndChar

StartChar: uogonek
Encoding: 304 371 310
Width: 536
VWidth: 0
Flags: MW
LayerCount: 2
Fore
SplineSet
65 520 m 1
 138 520 l 1
 138 181 l 2
 138 106 160 28 233 28 c 0
 299 28 348 106 385 142 c 1
 396 520 l 1
 461 520 l 1
 461 328 461 135 461 -57 c 1
 425 -58 324 -68 289 -80 c 1
 312 -119 366 -130 421 -130 c 0
 459 -130 497 -125 525 -120 c 1
 526 -176 l 1
 513 -179 496 -180 477 -180 c 0
 393 -180 269 -151 269 -84 c 0
 269 -43 382 -25 414 -15 c 1
 404 15 395 46 385 76 c 1
 330 19 271 -10 210 -10 c 0
 113 -10 65 47 65 160 c 2
 65 520 l 1
EndSplineSet
Validated: 1
EndChar

StartChar: kgreenlandic
Encoding: 245 312 323
Width: 480
VWidth: 0
Flags: MW
LayerCount: 2
Fore
SplineSet
356 0 m 1
 221 260 l 1
 156 180 l 1
 165 0 l 1
 85 0 l 1
 85 530 l 1
 156 530 l 1
 156 262 l 1
 375 530 l 1
 455 530 l 1
 245 292 l 1
 460 0 l 1
 356 0 l 1
EndSplineSet
Validated: 1
EndChar

StartChar: Dcroat
Encoding: 205 272 324
Width: 691
VWidth: 0
Flags: MW
LayerCount: 2
Fore
SplineSet
338 26 m 0
 364 26 387 29 405 40 c 0
 490 95 551 213 551 353 c 2
 551 366 l 1
 547 507 489 625 398 679 c 0
 385 689 366 692 343 692 c 0
 331 692 319 691 306 690 c 0
 298 690 285 690 270 690 c 0
 240 690 206 690 204 690 c 2
 204 386 l 1
 328 386 l 1
 328 328 l 1
 204 328 l 1
 204 30 l 1
 228 30 316 26 338 26 c 0
631 358 m 0
 631 244 604 155 552 93 c 0
 501 30 435 0 356 0 c 2
 124 0 l 1
 124 328 l 1
 34 328 l 1
 34 386 l 1
 124 386 l 1
 124 720 l 1
 354 718 l 2
 538 718 631 556 631 358 c 0
EndSplineSet
Validated: 1
EndChar

StartChar: dcroat
Encoding: 206 273 325
Width: 603
VWidth: 0
Flags: MW
LayerCount: 2
Fore
SplineSet
383 376 m 1
 359 416 308 493 242 493 c 0
 221 493 202 485 185 470 c 0
 133 424 110 365 110 268 c 0
 110 172 152 30 245 30 c 0
 330 31 355 103 383 160 c 1
 383 376 l 1
310 592 m 1
 310 638 l 1
 385 638 l 1
 382 720 l 1
 463 720 l 1
 463 638 l 1
 538 638 l 1
 538 592 l 1
 463 592 l 1
 463 0 l 1
 413 0 l 1
 382 77 l 1
 375 62 367 50 355 40 c 0
 325 14 277 -10 227 -10 c 0
 154 -10 115 23 84 68 c 0
 48 122 26 184 26 271 c 0
 26 404 85 530 222 530 c 0
 307 530 357 495 393 452 c 1
 387 592 l 1
 310 592 l 1
EndSplineSet
Validated: 1
EndChar

StartChar: Eth
Encoding: 141 208 326
Width: 691
VWidth: 0
Flags: MW
LayerCount: 2
Fore
SplineSet
338 26 m 0
 364 26 387 29 405 40 c 0
 490 95 551 213 551 353 c 2
 551 366 l 1
 547 497 475 690 343 690 c 2
 204 690 l 1
 204 386 l 1
 328 386 l 1
 328 328 l 1
 204 328 l 1
 204 30 l 1
 228 30 316 26 338 26 c 0
631 358 m 0
 631 244 604 155 552 93 c 0
 501 30 435 0 356 0 c 2
 124 0 l 1
 124 328 l 1
 34 328 l 1
 34 386 l 1
 124 386 l 1
 124 720 l 1
 354 718 l 2
 538 718 631 556 631 358 c 0
EndSplineSet
Validated: 1
EndChar

StartChar: eth
Encoding: 173 240 327
Width: 553
VWidth: 0
Flags: MW
LayerCount: 2
Fore
SplineSet
280 24 m 0
 383 24 437 154 437 276 c 0
 437 298 435 321 431 342 c 0
 422 405 389 460 343 483 c 0
 322 494 299 500 276 500 c 0
 252 500 228 494 207 483 c 0
 162 458 129 404 121 340 c 0
 117 306 114 285 114 265 c 0
 114 243 118 221 125 184 c 0
 144 108 185 24 280 24 c 0
277 -10 m 0
 126 -10 35 101 35 252 c 0
 35 412 118 530 277 530 c 0
 303 530 327 527 350 521 c 1
 346 526 320 562 277 605 c 1
 144 567 l 1
 126 606 l 1
 241 638 l 1
 206 669 164 699 117 720 c 1
 186 720 l 1
 186 720 235 699 295 654 c 1
 432 692 l 1
 449 653 l 1
 335 621 l 1
 398 566 463 487 497 381 c 0
 503 364 508 346 512 326 c 0
 512 323 513 320 513 317 c 0
 516 297 518 275 518 253 c 0
 518 104 424 -10 277 -10 c 0
EndSplineSet
Validated: 1
EndChar

StartChar: Thorn
Encoding: 155 222 328
Width: 580
VWidth: 0
Flags: MW
LayerCount: 2
Fore
SplineSet
371 579 m 2
 416 579 469 564 502 537 c 0
 534 510 550 449 550 392 c 0
 550 339 533 279 502 253 c 0
 471 224 428 209 375 209 c 2
 170 210 l 1
 170 0 l 1
 90 0 l 1
 90 720 l 1
 170 719 l 0
 170 580 l 0
 371 579 l 2
482 390 m 0
 482 477 456 552 369 552 c 2
 170 550 l 1
 168 236 l 1
 365 236 l 2
 452 236 482 303 482 390 c 0
EndSplineSet
Validated: 1
EndChar

StartChar: thorn
Encoding: 187 254 329
Width: 552
VWidth: 0
Flags: MW
LayerCount: 2
Fore
SplineSet
145 68 m 1
 155 -270 l 1
 75 -290 l 1
 75 720 l 1
 125 720 l 1
 156 443 l 1
 179 493 244 530 311 530 c 0
 452 530 512 390 512 249 c 0
 512 116 453 -10 316 -10 c 0
 251 -10 213 9 180 34 c 0
 166 46 154 57 145 68 c 1
155 144 m 1
 164 129 200 82 219 64 c 0
 237 46 263 27 296 27 c 0
 342 27 377 70 398 100 c 0
 420 137 428 195 428 252 c 0
 428 313 415 369 391 408 c 0
 371 439 342 490 293 490 c 0
 230 490 196 446 175 404 c 0
 165 383 168 386 155 360 c 1
 155 144 l 1
EndSplineSet
Validated: 1
EndChar

StartChar: Tbar
Encoding: 291 358 330
Width: 600
VWidth: 0
Flags: MW
LayerCount: 2
Fore
SplineSet
340 0 m 1
 260 0 l 1
 262 386 l 1
 124 386 l 1
 124 444 l 1
 263 444 l 1
 264 690 l 1
 30 676 l 1
 30 720 l 1
 570 720 l 1
 570 676 l 1
 336 690 l 1
 337 444 l 1
 468 444 l 1
 468 386 l 1
 338 386 l 1
 340 0 l 1
EndSplineSet
Validated: 1
EndChar

StartChar: tbar
Encoding: 292 359 331
Width: 474
VWidth: 0
Flags: MW
LayerCount: 2
Fore
SplineSet
434 27 m 1
 387 8 331 -10 268 -10 c 0
 218 -10 180 3 154 30 c 0
 128 57 120 95 120 149 c 2
 120 328 l 1
 40 328 l 1
 40 386 l 1
 120 386 l 1
 120 496 l 1
 40 496 l 1
 10 530 l 1
 120 530 l 1
 166 706 l 1
 200 706 l 1
 200 530 l 1
 390 530 l 1
 390 496 l 1
 200 496 l 1
 200 386 l 1
 284 386 l 1
 284 328 l 1
 199 328 l 1
 199 172 l 2
 199 134 204 83 222 62 c 0
 235 45 257 24 284 24 c 0
 311 24 334 36 353 47 c 0
 375 59 399 74 422 86 c 1
 434 27 l 1
EndSplineSet
Validated: 1
EndChar

StartChar: Hbar
Encoding: 227 294 332
Width: 743
VWidth: 0
Flags: MW
LayerCount: 2
Fore
SplineSet
543 0 m 1
 553 390 l 1
 190 390 l 1
 200 0 l 1
 120 0 l 1
 120 520 l 1
 60 520 l 1
 60 580 l 1
 120 580 l 1
 120 720 l 1
 200 720 l 1
 195 580 l 1
 548 580 l 1
 543 720 l 1
 623 720 l 1
 623 580 l 1
 683 580 l 1
 683 520 l 1
 623 520 l 1
 623 0 l 1
 543 0 l 1
193 520 m 1
 190 420 l 1
 553 420 l 1
 550 520 l 1
 193 520 l 1
EndSplineSet
Validated: 1
EndChar

StartChar: hbar
Encoding: 228 295 333
Width: 590
VWidth: 0
Flags: MW
LayerCount: 2
Fore
SplineSet
40 534 m 1
 40 592 l 1
 115 592 l 1
 115 720 l 1
 188 720 l 1
 190 592 l 1
 274 592 l 1
 274 534 l 1
 191 534 l 1
 193 442 l 1
 240 496 310 530 373 530 c 0
 449 530 515 480 515 355 c 2
 515 0 l 1
 437 0 l 1
 437 337 l 2
 437 384 434 416 414 447 c 0
 403 462 392 473 383 480 c 0
 371 489 359 493 346 493 c 0
 286 493 220 406 193 376 c 1
 181 0 l 1
 115 0 l 1
 115 534 l 1
 40 534 l 1
EndSplineSet
Validated: 1
EndChar

StartChar: Lslash
Encoding: 254 321 334
Width: 572
VWidth: 0
Flags: MW
LayerCount: 2
Fore
SplineSet
164 720 m 1
 244 720 l 1
 244 453 l 1
 346 482 l 1
 363 443 l 1
 244 409 l 1
 244 30 l 1
 532 40 l 1
 532 0 l 1
 164 0 l 1
 164 387 l 1
 58 357 l 1
 40 396 l 1
 164 431 l 1
 164 720 l 1
EndSplineSet
Validated: 1
EndChar

StartChar: lslash
Encoding: 255 322 335
Width: 353
VWidth: 0
Flags: MW
LayerCount: 2
Fore
SplineSet
118 377 m 1
 58 357 l 1
 40 396 l 1
 118 422 l 1
 118 520 l 1
 109 690 l 1
 60 686 l 1
 60 720 l 1
 188 720 l 1
 198 520 l 1
 197 449 l 1
 296 482 l 1
 313 443 l 1
 196 403 l 1
 188 34 l 1
 292 40 l 1
 292 0 l 1
 118 0 l 1
 118 377 l 1
EndSplineSet
Validated: 1
EndChar

StartChar: ordfeminine
Encoding: 104 170 336
Width: 289
VWidth: 0
Flags: MW
LayerCount: 2
Fore
SplineSet
249 518 m 1
 215 518 l 1
 212 529 205 542 205 556 c 1
 184 528 154 514 114 514 c 0
 73 514 40 539 40 577 c 0
 40 577 40 578 40 579 c 0
 41 650 132 651 204 657 c 1
 204 689 198 716 175 727 c 0
 167 731 158 732 147 732 c 0
 117 732 80 719 63 711 c 1
 53 723 l 1
 86 739 120 747 154 747 c 0
 213 747 242 719 242 663 c 2
 242 572 l 2
 242 553 246 535 249 518 c 1
126 539 m 0
 161 539 188 562 204 581 c 1
 204 641 l 1
 186 640 171 639 159 638 c 0
 129 635 109 629 92 615 c 1
 80 608 74 594 74 581 c 0
 74 568 78 558 88 550 c 0
 98 542 109 539 126 539 c 0
EndSplineSet
Validated: 1
EndChar

StartChar: uni01DD
Encoding: 341 477 362
Width: 522
VWidth: 0
Flags: MW
LayerCount: 2
Fore
SplineSet
72 485 m 1
 115 505 161 530 223 530 c 0
 342 530 425 463 461 369 c 0
 474 336 480 299 480 257 c 0
 480 173 456 108 415 62 c 0
 378 17 337 -11 260 -11 c 0
 190 -11 140 1 103 41 c 0
 72 76 40 144 40 204 c 2
 40 209 l 1
 385 241 l 1
 385 316 371 381 348 435 c 0
 337 457 329 469 312 480 c 0
 292 493 259 505 227 505 c 0
 180 505 139 470 96 463 c 0
 85 462 77 465 74 474 c 1
 72 485 l 1
120 183 m 1
 120 118 165 57 208 31 c 0
 224 21 241 16 258 16 c 0
 309 16 340 45 358 80 c 0
 368 99 390 161 390 215 c 1
 120 183 l 1
EndSplineSet
Validated: 1
EndChar

StartChar: uni01EA
Encoding: 354 490 371
Width: 670
VWidth: 0
Flags: M
LayerCount: 2
Fore
SplineSet
542 350 m 0
 542 408 536 461 528 497 c 0
 507 585 465 694 336 694 c 0
 203 694 162 586 142 497 c 0
 134 452 128 398 128 344 c 0
 128 189 173 26 335 26 c 0
 502 26 542 203 542 350 c 0
620 369 m 2
 620 364 l 2
 620 305 614 249 603 201 c 0
 576 79 480 -2 358 -9 c 1
 388 -67 l 1
 352 -68 236 -77 201 -89 c 1
 224 -128 278 -139 333 -139 c 0
 371 -139 409 -134 437 -129 c 1
 438 -185 l 1
 425 -188 408 -189 389 -189 c 0
 305 -189 181 -160 181 -93 c 0
 181 -52 296 -33 328 -23 c 1
 321 -9 l 1
 286 -7 240 3 213 14 c 0
 72 82 52 226 50 362 c 0
 52 555 107 724 335 730 c 1
 560 730 620 544 620 369 c 2
EndSplineSet
Validated: 1
EndChar

StartChar: uni01EB
Encoding: 355 491 372
Width: 553
VWidth: 0
Flags: M
LayerCount: 2
Fore
SplineSet
278 24 m 0
 381 24 437 154 437 276 c 0
 437 393 392 500 278 500 c 0
 160 500 114 384 114 265 c 0
 114 155 163 24 278 24 c 0
261 -10 m 1
 120 -2 35 107 35 252 c 0
 35 412 119 530 278 530 c 0
 436 530 518 413 518 253 c 0
 518 111 433 0 298 -9 c 1
 328 -67 l 1
 292 -68 176 -77 141 -89 c 1
 164 -128 218 -139 273 -139 c 0
 311 -139 349 -134 377 -129 c 1
 378 -185 l 1
 365 -188 348 -189 329 -189 c 0
 245 -189 121 -160 121 -93 c 0
 121 -52 236 -33 268 -23 c 1
 261 -10 l 1
EndSplineSet
Validated: 1
EndChar

StartChar: uni0202
Encoding: 374 514 386
Width: 590
VWidth: 0
Flags: HMW
LayerCount: 2
Fore
SplineSet
388 751 m 0
 352 751 l 1
 352 789 322 808 292 808 c 0
 262 808 230 788 230 750 c 1
 196 750 l 0
 196 751 196 751 196 752 c 0
 196 809 240 838 290 838 c 0
 334 838 388 813 388 751 c 0
EndSplineSet
Refer: 71 65 N 1 0 0 1 0 0 3
Validated: 1
EndChar

StartChar: uni0203
Encoding: 375 515 387
Width: 482
VWidth: 0
Flags: HMW
LayerCount: 2
Fore
SplineSet
340 581 m 0
 304 581 l 1
 304 619 274 638 244 638 c 0
 214 638 182 618 182 580 c 1
 148 580 l 0
 148 581 148 581 148 582 c 0
 148 639 192 668 242 668 c 0
 286 668 340 643 340 581 c 0
EndSplineSet
Refer: 97 97 N 1 0 0 1 0 0 3
Validated: 1
EndChar

StartChar: uni0206
Encoding: 378 518 388
Width: 500
VWidth: 0
Flags: HMW
LayerCount: 2
Fore
SplineSet
348 751 m 0
 312 751 l 1
 312 789 284 808 254 808 c 0
 222 808 192 788 192 750 c 1
 158 750 l 0
 158 751 158 751 158 752 c 0
 158 809 202 838 252 838 c 0
 294 838 348 813 348 751 c 0
EndSplineSet
Refer: 75 69 N 1 0 0 1 0 0 3
Validated: 1
EndChar

StartChar: uni030F
Encoding: 438 783 389
Width: 346
VWidth: 0
Flags: MW
LayerCount: 2
Fore
SplineSet
40 847 m 1
 75 918 l 1
 186 751 l 1
 40 847 l 1
161 847 m 1
 195 918 l 1
 306 751 l 1
 161 847 l 1
EndSplineSet
Validated: 1
EndChar

StartChar: uni0207
Encoding: 379 519 395
Width: 470
VWidth: 0
Flags: HMW
LayerCount: 2
Fore
SplineSet
346 581 m 0
 310 581 l 1
 310 619 280 638 250 638 c 0
 220 638 188 618 188 580 c 1
 154 580 l 0
 154 581 154 581 154 582 c 0
 154 639 198 668 248 668 c 0
 292 668 346 643 346 581 c 0
EndSplineSet
Refer: 101 101 N 1 0 0 1 0 0 3
Validated: 1
EndChar

StartChar: uni020A
Encoding: 382 522 398
Width: 358
VWidth: 0
Flags: HMW
LayerCount: 2
Fore
SplineSet
278 751 m 0
 242 751 l 1
 242 789 212 808 182 808 c 0
 152 808 120 788 120 750 c 1
 86 750 l 0
 86 751 86 751 86 752 c 0
 86 809 130 838 180 838 c 0
 224 838 278 813 278 751 c 0
EndSplineSet
Refer: 79 73 N 1 0 0 1 0 0 3
Validated: 1
EndChar

StartChar: uni020B
Encoding: 383 523 399
Width: 225
VWidth: 0
Flags: HM
LayerCount: 2
Fore
SplineSet
206 581 m 0
 170 581 l 1
 170 619 140 638 110 638 c 0
 80 638 48 618 48 580 c 1
 14 580 l 0
 14 581 14 581 14 582 c 0
 14 639 58 668 108 668 c 0
 152 668 206 643 206 581 c 0
EndSplineSet
Refer: 173 305 N 1 0 0 1 0 0 3
Validated: 1
EndChar

StartChar: uni020E
Encoding: 386 526 402
Width: 636
VWidth: 0
Flags: HMW
LayerCount: 2
Fore
SplineSet
414 751 m 0
 378 751 l 1
 378 789 348 808 318 808 c 0
 288 808 256 788 256 750 c 1
 222 750 l 0
 222 751 222 751 222 752 c 0
 222 809 266 838 316 838 c 0
 360 838 414 813 414 751 c 0
EndSplineSet
Refer: 85 79 N 1 0 0 1 0 0 3
Validated: 1
EndChar

StartChar: uni020F
Encoding: 387 527 403
Width: 533
VWidth: 0
Flags: HMW
LayerCount: 2
Fore
SplineSet
362 581 m 0
 326 581 l 1
 326 619 298 638 268 638 c 0
 236 638 206 618 206 580 c 1
 172 580 l 0
 172 581 172 581 172 582 c 0
 172 639 216 668 266 668 c 0
 308 668 362 643 362 581 c 0
EndSplineSet
Refer: 111 111 N 1 0 0 1 0 0 3
Validated: 1
EndChar

StartChar: uni0212
Encoding: 390 530 406
Width: 598
VWidth: 0
Flags: HMW
LayerCount: 2
Fore
SplineSet
370 751 m 0
 334 751 l 1
 334 789 306 808 276 808 c 0
 244 808 214 788 214 750 c 1
 180 750 l 0
 180 751 180 751 180 752 c 0
 180 809 224 838 274 838 c 0
 316 838 370 813 370 751 c 0
EndSplineSet
Refer: 88 82 N 1 0 0 1 0 0 3
Validated: 1
EndChar

StartChar: uni0213
Encoding: 391 531 407
Width: 339
VWidth: 0
Flags: HMW
LayerCount: 2
Fore
SplineSet
265 581 m 0
 229 581 l 1
 229 619 200 638 170 638 c 0
 139 638 108 618 108 580 c 1
 74 580 l 0
 74 581 74 581 74 582 c 0
 74 639 118 668 168 668 c 0
 211 668 265 643 265 581 c 0
EndSplineSet
Refer: 114 114 N 1 0 0 1 0 0 3
Validated: 1
EndChar

StartChar: uni0216
Encoding: 394 534 410
Width: 620
VWidth: 0
Flags: HMW
LayerCount: 2
Fore
SplineSet
406 751 m 0
 370 751 l 1
 370 789 340 808 310 808 c 0
 280 808 248 788 248 750 c 1
 214 750 l 0
 214 751 214 751 214 752 c 0
 214 809 258 838 308 838 c 0
 352 838 406 813 406 751 c 0
EndSplineSet
Refer: 91 85 N 1 0 0 1 0 0 3
Validated: 1
EndChar

StartChar: uni0217
Encoding: 395 535 411
Width: 536
VWidth: 0
Flags: HMW
LayerCount: 2
Fore
SplineSet
358 581 m 0
 322 581 l 1
 322 619 294 638 264 638 c 0
 232 638 202 618 202 580 c 1
 168 580 l 0
 168 581 168 581 168 582 c 0
 168 639 212 668 262 668 c 0
 304 668 358 643 358 581 c 0
EndSplineSet
Refer: 117 117 N 1 0 0 1 0 0 3
Validated: 1
EndChar

StartChar: uni0228
Encoding: 404 552 420
Width: 530
VWidth: 0
Flags: M
LayerCount: 2
Fore
SplineSet
80 0 m 1
 80 720 l 1
 466 720 l 1
 466 684 l 1
 160 690 l 1
 160 382 l 1
 410 384 l 1
 410 350 l 1
 160 352 l 1
 164 30 l 1
 470 41 l 1
 470 0 l 1
 271 0 l 1
 264 -46 l 1
 316 -59 393 -64 411 -114 c 0
 413 -120 414 -126 414 -132 c 0
 414 -158 392 -178 376 -188 c 0
 335 -214 274 -230 210 -230 c 0
 196 -230 182 -230 168 -228 c 0
 163 -228 159 -227 154 -226 c 1
 155 -170 l 1
 186 -175 220 -179 255 -179 c 0
 275 -179 294 -178 313 -175 c 0
 345 -171 380 -157 381 -120 c 1
 367 -110 351 -103 335 -99 c 0
 294 -88 249 -92 204 -88 c 1
 236 0 l 1
 80 0 l 1
EndSplineSet
Validated: 1
EndChar

StartChar: uni0229
Encoding: 405 553 421
Width: 522
VWidth: 0
Flags: M
LayerCount: 2
Fore
SplineSet
386 342 m 0
 386 444 326 499 260 499 c 0
 187 499 118 435 118 302 c 1
 146 306 386 328 386 342 c 0
438 25 m 1
 395 5 359 -11 297 -11 c 0
 296 -11 294 -11 293 -11 c 2
 286 -57 l 1
 338 -70 415 -75 433 -125 c 0
 435 -131 436 -137 436 -143 c 0
 436 -169 414 -189 398 -199 c 0
 357 -225 296 -241 232 -241 c 0
 218 -241 204 -241 190 -239 c 0
 185 -239 181 -238 176 -237 c 1
 177 -181 l 1
 208 -186 242 -190 277 -190 c 0
 297 -190 316 -189 335 -186 c 0
 367 -182 402 -168 403 -131 c 1
 389 -121 373 -114 357 -110 c 0
 316 -99 271 -103 226 -99 c 1
 259 -9 l 1
 160 4 91 66 59 150 c 0
 46 183 40 220 40 262 c 0
 40 346 64 411 105 457 c 0
 142 502 184 530 250 530 c 0
 387 530 460 435 460 325 c 0
 460 315 364 299 351 298 c 2
 118 264 l 1
 118 189 132 139 176 86 c 0
 203 54 234 25 280 25 c 0
 343 25 358 59 422 89 c 0
 426 89 435 38 438 25 c 1
EndSplineSet
Validated: 1
EndChar

StartChar: uni01E4
Encoding: 348 484 435
Width: 714
VWidth: 0
Flags: MW
LayerCount: 2
Fore
SplineSet
583 70 m 1
 521 31 457 -10 377 -10 c 2
 360 -10 l 2
 128 -10 60 184 60 374 c 0
 60 541 135 730 360 730 c 2
 372 730 l 2
 443 729 520 716 577 680 c 1
 546 616 l 1
 479 653 437 700 371 700 c 0
 194 700 140 482 140 360 c 2
 140 354 l 2
 140 229 182 101 266 51 c 0
 290 37 331 30 362 30 c 0
 423 30 482 48 532 94 c 1
 526 198 l 1
 450 198 l 1
 450 256 l 1
 522 256 l 1
 516 350 l 1
 386 344 l 1
 386 376 l 1
 606 376 l 1
 597 256 l 1
 654 256 l 1
 654 198 l 1
 593 198 l 1
 583 70 l 1
EndSplineSet
Validated: 1
EndChar

StartChar: uni01E5
Encoding: 349 485 438
Width: 586
VWidth: 0
Flags: MW
LayerCount: 2
Fore
SplineSet
285 509 m 0
 246 509 215 484 197 460 c 0
 177 433 160 396 160 351 c 0
 160 274 211 196 288 196 c 0
 351 196 395 253 407 316 c 1
 350 316 l 1
 350 374 l 1
 408 374 l 1
 399 442 352 509 285 509 c 0
212 10 m 0
 177 10 138 -76 138 -107 c 0
 138 -167 192 -222 257 -222 c 0
 273 -222 291 -219 311 -213 c 0
 363 -198 421 -167 452 -130 c 0
 467 -111 475 -92 475 -73 c 0
 475 -22 399 11 347 11 c 0
 301 11 258 10 212 10 c 0
492 316 m 1
 480 248 431 208 372 188 c 0
 346 179 318 175 287 175 c 2
 219 175 l 1
 197 164 137 141 137 113 c 0
 137 105 142 97 153 89 c 0
 165 80 197 79 221 79 c 0
 225 79 229 79 233 79 c 2
 372 79 l 2
 432 79 471 60 501 28 c 0
 516 12 523 -6 524 -36 c 0
 524 -102 483 -154 445 -187 c 0
 400 -226 328 -251 257 -251 c 0
 208 -251 161 -239 122 -213 c 0
 96 -192 79 -170 71 -149 c 0
 67 -137 65 -125 65 -115 c 0
 65 -78 87 -51 110 -30 c 0
 130 -12 154 4 183 18 c 1
 139 37 107 66 75 98 c 1
 75 110 83 124 101 140 c 0
 118 157 144 174 179 191 c 1
 183 191 l 1
 124 218 75 270 75 350 c 0
 75 466 171 530 287 530 c 0
 343 530 389 516 425 488 c 1
 551 488 l 1
 547 442 l 1
 461 452 l 1
 477 432 489 405 493 374 c 1
 554 374 l 1
 554 316 l 1
 492 316 l 1
EndSplineSet
Validated: 1
EndChar

StartChar: endash
Encoding: 439 8211 439
Width: 482
VWidth: 0
Flags: MW
LayerCount: 2
Fore
SplineSet
442 331 m 1
 40 331 l 1
 40 389 l 1
 442 389 l 1
 442 331 l 1
EndSplineSet
Validated: 1
EndChar

StartChar: emdash
Encoding: 440 8212 440
Width: 636
VWidth: 0
Flags: MW
LayerCount: 2
Fore
SplineSet
596 330 m 1
 40 330 l 1
 40 388 l 1
 596 388 l 1
 596 330 l 1
EndSplineSet
Validated: 1
EndChar

StartChar: quoteleft
Encoding: 441 8216 441
Width: 179
VWidth: 0
Flags: MW
LayerCount: 2
Fore
SplineSet
94 569 m 0
 64 569 40 599 40 630 c 0
 40 681 68 721 125 750 c 1
 135 732 l 1
 111 720 93 697 93 666 c 1
 117 663 139 643 139 616 c 0
 139 590 121 569 94 569 c 0
EndSplineSet
Validated: 1
EndChar

StartChar: quoteright
Encoding: 442 8217 442
Width: 179
VWidth: 0
Flags: MW
LayerCount: 2
Fore
SplineSet
85 750 m 0
 115 750 139 720 139 689 c 0
 139 638 111 598 54 569 c 1
 44 587 l 1
 68 599 86 622 86 653 c 1
 62 656 40 676 40 703 c 0
 40 729 58 750 85 750 c 0
EndSplineSet
Validated: 1
EndChar

StartChar: quotesinglbase
Encoding: 443 8218 443
Width: 179
VWidth: 0
Flags: MW
LayerCount: 2
Fore
SplineSet
85 87 m 0
 115 87 139 57 139 26 c 0
 139 -25 111 -65 54 -94 c 1
 44 -76 l 1
 68 -64 86 -41 86 -10 c 1
 62 -7 40 13 40 40 c 0
 40 66 58 87 85 87 c 0
EndSplineSet
Validated: 1
EndChar

StartChar: quotedblleft
Encoding: 444 8220 444
Width: 338
VWidth: 0
Flags: MW
LayerCount: 2
Fore
SplineSet
94 619 m 0
 64 619 40 649 40 680 c 0
 40 731 68 771 125 800 c 1
 135 782 l 1
 111 770 93 747 93 716 c 1
 117 713 139 693 139 666 c 0
 139 640 121 619 94 619 c 0
253 619 m 0
 223 619 199 649 199 680 c 0
 199 731 227 771 284 800 c 1
 294 782 l 1
 270 770 252 747 252 716 c 1
 276 713 298 693 298 666 c 0
 298 640 280 619 253 619 c 0
EndSplineSet
Validated: 1
EndChar

StartChar: quotedblright
Encoding: 445 8221 445
Width: 338
VWidth: 0
Flags: MW
LayerCount: 2
Fore
SplineSet
244 800 m 0
 274 800 298 770 298 739 c 0
 298 688 270 648 213 619 c 1
 203 637 l 1
 227 649 245 672 245 703 c 1
 221 706 199 726 199 753 c 0
 199 779 217 800 244 800 c 0
85 800 m 0
 115 800 139 770 139 739 c 0
 139 688 111 648 54 619 c 1
 44 637 l 1
 68 649 86 672 86 703 c 1
 62 706 40 726 40 753 c 0
 40 779 58 800 85 800 c 0
EndSplineSet
Validated: 1
EndChar

StartChar: quotedblbase
Encoding: 446 8222 446
Width: 338
VWidth: 0
Flags: MW
LayerCount: 2
Fore
SplineSet
244 87 m 0
 274 87 298 57 298 26 c 0
 298 -25 270 -65 213 -94 c 1
 203 -76 l 1
 227 -64 245 -41 245 -10 c 1
 221 -7 199 13 199 40 c 0
 199 66 217 87 244 87 c 0
85 87 m 0
 115 87 139 57 139 26 c 0
 139 -25 111 -65 54 -94 c 1
 44 -76 l 1
 68 -64 86 -41 86 -10 c 1
 62 -7 40 13 40 40 c 0
 40 66 58 87 85 87 c 0
EndSplineSet
Validated: 1
EndChar

StartChar: dagger
Encoding: 447 8224 447
Width: 480
VWidth: 0
Flags: MW
LayerCount: 2
Fore
SplineSet
210 530 m 1
 40 510 l 1
 40 590 l 1
 106 590 l 1
 210 580 l 1
 200 700 l 1
 200 800 l 1
 280 800 l 1
 280 700 l 1
 270 580 l 1
 376 590 l 1
 440 590 l 1
 440 510 l 1
 270 530 l 1
 280 36 l 1
 280 -60 l 1
 210 -60 l 1
 210 36 l 1
 210 530 l 1
EndSplineSet
Validated: 1
EndChar

StartChar: daggerdbl
Encoding: 448 8225 448
Width: 480
VWidth: 0
Flags: MW
LayerCount: 2
Fore
SplineSet
210 210 m 1
 210 530 l 1
 40 510 l 1
 40 590 l 1
 106 590 l 1
 210 580 l 1
 200 700 l 1
 200 800 l 1
 280 800 l 1
 280 700 l 1
 270 580 l 1
 376 590 l 1
 440 590 l 1
 440 510 l 1
 270 530 l 1
 270 210 l 1
 440 230 l 1
 440 150 l 1
 375 150 l 1
 270 160 l 1
 280 36 l 1
 280 -60 l 1
 200 -60 l 1
 200 36 l 1
 210 160 l 1
 105 150 l 1
 40 150 l 1
 40 230 l 1
 210 210 l 1
EndSplineSet
Validated: 1
EndChar

StartChar: bullet
Encoding: 449 8226 449
Width: 253
VWidth: 0
Flags: MW
LayerCount: 2
Fore
SplineSet
40 361 m 0
 40 411 76 448 126 448 c 0
 176 448 213 408 213 360 c 0
 213 318 188 291 159 277 c 0
 149 272 138 270 126 270 c 0
 77 270 40 311 40 361 c 0
EndSplineSet
Validated: 1
EndChar

StartChar: perthousand
Encoding: 451 8240 451
Width: 837
VWidth: 0
Flags: MW
LayerCount: 2
Fore
SplineSet
777 442 m 1
 797 385 l 1
 60 309 l 1
 40 365 l 1
 777 442 l 1
220 732 m 0
 298 732 339 658 339 586 c 0
 339 567 336 548 330 531 c 0
 311 472 264 444 218 444 c 0
 171 444 124 473 105 531 c 0
 98 549 95 568 95 587 c 0
 95 659 140 732 220 732 c 0
110 585 m 0
 110 532 167 501 218 501 c 0
 232 501 246 503 258 508 c 0
 302 525 325 557 325 588 c 0
 325 619 304 649 260 666 c 0
 248 670 235 672 222 672 c 0
 168 672 110 640 110 585 c 0
582 278 m 0
 660 278 701 204 701 132 c 0
 701 113 698 94 692 77 c 0
 673 18 626 -10 580 -10 c 0
 533 -10 486 19 467 77 c 0
 460 95 457 114 457 133 c 0
 457 205 502 278 582 278 c 0
472 131 m 0
 472 78 529 47 580 47 c 0
 594 47 608 49 620 54 c 0
 664 71 687 103 687 134 c 0
 687 165 666 195 622 212 c 0
 610 216 597 218 584 218 c 0
 530 218 472 186 472 131 c 0
294 278 m 0
 372 278 413 204 413 132 c 0
 413 113 410 94 404 77 c 0
 385 18 338 -10 292 -10 c 0
 245 -10 198 19 179 77 c 0
 172 95 169 114 169 133 c 0
 169 205 214 278 294 278 c 0
184 131 m 0
 184 78 241 47 292 47 c 0
 306 47 320 49 332 54 c 0
 376 71 399 103 399 134 c 0
 399 165 378 195 334 212 c 0
 322 216 309 218 296 218 c 0
 242 218 184 186 184 131 c 0
EndSplineSet
Validated: 1
EndChar

StartChar: guilsinglleft
Encoding: 452 8249 452
Width: 404
VWidth: 0
Flags: HMW
LayerCount: 2
Fore
SplineSet
121 230 m 5
 324 18 l 5
 309 5 297 -2 297 -2 c 5
 297 -2 111 161 80 184 c 5
 80 272 l 5
 111 296 276 468 290 468 c 5
 298 463 310 454 317 448 c 5
 121 230 l 5
EndSplineSet
Validated: 1
EndChar

StartChar: guilsinglright
Encoding: 453 8250 453
Width: 404
VWidth: 0
Flags: HMW
LayerCount: 2
Fore
SplineSet
283 230 m 1
 87 448 l 1
 94 454 106 463 114 468 c 1
 128 468 293 296 324 272 c 1
 324 184 l 1
 293 161 107 -2 107 -2 c 1
 107 -2 95 5 80 18 c 1
 283 230 l 1
EndSplineSet
Validated: 1
EndChar

StartChar: asterism
Encoding: 454 8258 454
Width: 898
VWidth: 0
Flags: HMW
LayerCount: 2
Fore
SplineSet
487 557 m 1
 570 480 l 1
 500 444 l 1
 448 540 l 1
 446 537 l 1
 430 499 406 465 374 444 c 1
 322 480 l 1
 408 556 l 1
 378 559 331 572 304 584 c 1
 324 660 l 1
 428 600 l 1
 408 720 l 1
 486 721 l 1
 484 687 476 633 467 601 c 1
 570 660 l 1
 592 584 l 1
 592 584 549 564 487 557 c 1
713 117 m 1
 796 40 l 1
 726 4 l 1
 674 100 l 1
 672 97 l 1
 656 59 632 25 600 4 c 1
 548 40 l 1
 634 116 l 1
 604 119 557 132 530 144 c 1
 550 220 l 1
 654 160 l 1
 634 280 l 1
 712 281 l 1
 710 247 702 193 693 161 c 1
 796 220 l 1
 818 144 l 1
 818 144 775 124 713 117 c 1
263 117 m 1
 346 40 l 1
 276 4 l 1
 224 100 l 1
 222 97 l 1
 206 59 182 25 150 4 c 1
 98 40 l 1
 184 116 l 1
 154 119 107 132 80 144 c 1
 100 220 l 1
 204 160 l 1
 184 280 l 1
 262 281 l 1
 260 247 252 193 243 161 c 1
 346 220 l 1
 368 144 l 1
 368 144 325 124 263 117 c 1
EndSplineSet
Validated: 1
EndChar

StartChar: euro
Encoding: 456 8364 456
Width: 605
VWidth: 0
Flags: MW
LayerCount: 2
Fore
SplineSet
565 46 m 1
 514 6 452 -10 386 -10 c 0
 385 -10 385 -10 384 -10 c 0
 223 -10 157 103 137 249 c 1
 40 249 l 1
 66 311 l 1
 131 311 l 1
 131 326 130 342 130 358 c 0
 130 366 130 373 130 381 c 1
 40 381 l 1
 66 443 l 1
 134 443 l 1
 149 589 216 730 376 730 c 0
 379 730 383 730 386 730 c 0
 445 729 508 716 555 680 c 1
 530 616 l 1
 474 653 440 700 385 700 c 0
 352 700 317 671 280 620 c 0
 238 566 221 509 214 443 c 1
 538 443 l 1
 516 381 l 1
 210 381 l 1
 210 374 210 367 210 360 c 0
 210 344 211 327 212 311 c 1
 538 311 l 1
 516 249 l 1
 219 249 l 1
 232 171 261 98 323 51 c 0
 343 38 369 21 395 20 c 0
 410 20 427 23 440 30 c 0
 478 49 508 89 545 112 c 1
 565 46 l 1
EndSplineSet
Validated: 1
EndChar

StartChar: Delta
Encoding: 457 8710 457
Width: 640
VWidth: 0
Flags: MW
LayerCount: 2
Fore
SplineSet
320 710 m 1
 600 150 l 1
 40 150 l 1
 320 710 l 1
518 190 m 1
 320 622 l 1
 122 190 l 1
 518 190 l 1
EndSplineSet
Validated: 1
EndChar

StartChar: minus
Encoding: 458 8722 458
Width: 460
VWidth: 0
Flags: MW
LayerCount: 2
Fore
SplineSet
420 387 m 1
 420 326 l 1
 40 326 l 1
 40 387 l 1
 420 387 l 1
EndSplineSet
Validated: 1
EndChar

StartChar: asteriskmath
Encoding: 459 8727 459
Width: 368
VWidth: 0
Flags: MW
LayerCount: 2
Fore
SplineSet
303 255 m 1
 202 330 l 1
 207 202 l 1
 161 202 l 1
 166 330 l 1
 64 254 l 1
 40 295 l 1
 154 362 l 1
 40 429 l 1
 64 470 l 1
 166 393 l 1
 161 520 l 1
 207 520 l 1
 202 394 l 1
 303 470 l 1
 328 429 l 1
 216 362 l 1
 328 295 l 1
 303 255 l 1
EndSplineSet
Validated: 1
EndChar

StartChar: infinity
Encoding: 460 8734 460
Width: 578
VWidth: 0
Flags: MW
LayerCount: 2
Fore
SplineSet
522 362 m 0
 522 418 463 451 408 451 c 0
 394 451 380 449 367 444 c 0
 321 426 297 392 297 359 c 0
 297 327 319 295 365 278 c 0
 377 273 391 271 405 271 c 0
 461 271 522 306 522 362 c 0
280 362 m 0
 280 418 221 451 167 451 c 0
 152 451 138 449 126 444 c 0
 80 426 55 392 55 359 c 0
 55 327 78 295 123 278 c 0
 135 273 149 271 163 271 c 0
 219 271 280 306 280 362 c 0
165 208 m 0
 83 208 40 287 40 362 c 0
 40 382 43 402 49 420 c 0
 69 481 118 511 167 511 c 0
 216 511 266 480 286 420 c 0
 287 417 288 414 288 412 c 1
 289 414 290 417 291 420 c 0
 311 481 360 511 409 511 c 0
 458 511 508 480 528 420 c 0
 535 401 538 381 538 361 c 0
 538 285 492 208 407 208 c 0
 344 208 304 255 289 310 c 1
 273 254 230 208 165 208 c 0
EndSplineSet
Validated: 1
EndChar

StartChar: approxequal
Encoding: 462 8776 462
Width: 620
VWidth: 0
Flags: MW
LayerCount: 2
Fore
SplineSet
580 430 m 1
 580 430 549 370 440 370 c 0
 335 370 249 488 180 488 c 0
 111 488 40 370 40 370 c 1
 40 420 l 1
 40 420 90 550 180 550 c 0
 268 550 372 418 440 418 c 0
 508 418 580 490 580 490 c 1
 580 430 l 1
580 228 m 1
 580 228 549 168 440 168 c 0
 335 168 249 286 180 286 c 0
 111 286 40 168 40 168 c 1
 40 218 l 1
 40 218 90 348 180 348 c 0
 268 348 372 216 440 216 c 0
 508 216 580 288 580 288 c 1
 580 228 l 1
EndSplineSet
Validated: 1
EndChar

StartChar: notequal
Encoding: 463 8800 463
Width: 500
VWidth: 0
Flags: MW
LayerCount: 2
Fore
SplineSet
40 249 m 1
 40 311 l 1
 203 311 l 1
 229 409 l 1
 40 409 l 1
 40 471 l 1
 246 471 l 1
 268 554 l 1
 336 554 l 1
 313 471 l 1
 460 471 l 1
 460 409 l 1
 297 409 l 1
 270 311 l 1
 460 311 l 1
 460 249 l 1
 253 249 l 1
 224 142 l 1
 158 142 l 1
 187 249 l 1
 40 249 l 1
EndSplineSet
Validated: 1
EndChar

StartChar: lessequal
Encoding: 464 8804 464
Width: 500
VWidth: 0
Flags: MW
LayerCount: 2
Fore
SplineSet
332 150 m 1
 40 330 l 1
 40 390 l 1
 430 640 l 1
 460 580 l 1
 90 360 l 1
 460 150 l 1
 460 90 l 1
 430 90 l 1
 40 90 l 1
 40 150 l 1
 332 150 l 1
EndSplineSet
Validated: 1
EndChar

StartChar: greaterequal
Encoding: 465 8805 465
Width: 500
VWidth: 0
Flags: MW
LayerCount: 2
Fore
SplineSet
168 150 m 1
 460 150 l 1
 460 90 l 1
 70 90 l 1
 40 90 l 1
 40 150 l 1
 410 360 l 1
 40 580 l 1
 70 640 l 1
 460 390 l 1
 460 330 l 1
 168 150 l 1
EndSplineSet
Validated: 1
EndChar

StartChar: lozenge
Encoding: 466 9674 466
Width: 620
VWidth: 0
Flags: MW
LayerCount: 2
Fore
SplineSet
580 361 m 1
 310 -41 l 1
 40 361 l 1
 310 799 l 1
 580 361 l 1
494 361 m 1
 310 689 l 1
 120 361 l 1
 310 59 l 1
 494 361 l 1
EndSplineSet
Validated: 1
EndChar

StartChar: ff
Encoding: 468 64256 467
Width: 642
VWidth: 0
Flags: HMW
LayerCount: 2
Fore
SplineSet
627 710 m 1
 618 675 611 663 599 663 c 0
 587 663 571 674 544 688 c 0
 536 692 526 694 517 694 c 0
 456 694 451 647 451 582 c 0
 451 568 451 553 451 538 c 2
 451 530 l 1
 609 530 l 1
 609 496 l 1
 451 496 l 1
 454 0 l 1
 387 0 l 1
 386 496 l 1
 343 504 313 505 287 505 c 0
 247 505 203 500 170 496 c 1
 173 0 l 1
 106 0 l 1
 106 496 l 1
 43 496 l 1
 43 509 l 1
 106 530 l 1
 106 654 116 730 243 730 c 0
 343 730 383 700 412 683 c 1
 432 716 469 730 524 730 c 0
 565 730 594 720 627 710 c 1
387 530 m 1
 387 538 l 2
 387 567 389 598 394 625 c 1
 367 650 330 702 243 702 c 0
 178 702 170 610 170 530 c 1
 387 530 l 1
EndSplineSet
Validated: 1
LCarets2: 1 0
Ligature2: "'liga' Standard Ligatures in Latin lookup 0-1" f f
EndChar

StartChar: fi
Encoding: 467 64257 468
Width: 566
VWidth: 0
Flags: HMW
LayerCount: 2
Fore
SplineSet
329 530 m 17
 329 496 l 1
 170 496 l 1
 173 0 l 1
 106 0 l 1
 106 496 l 1
 43 496 l 1
 43 509 l 1
 106 530 l 1
 106 538 l 2
 106 683 155 730 302 730 c 0
 335 730 494 720 494 637 c 0
 494 615 476 592 451 592 c 0
 408 592 386 663 362 680 c 0
 344 693 315 703 282 703 c 0
 215 703 170 678 170 588 c 0
 170 553 170 530 170 530 c 1
 170 530 273 530 329 530 c 17
487 520 m 3
 487 349 487 174 487 0 c 0
 418 0 l 1
 418 507 l 2
 418 514 418 520 418 520 c 0
 419 520 487 520 487 520 c 3
EndSplineSet
Validated: 1
LCarets2: 1 0
Ligature2: "'liga' Standard Ligatures in Latin lookup 0-1" f i
EndChar

StartChar: fl
Encoding: 469 64258 469
Width: 678
VWidth: 0
Flags: HMW
LayerCount: 2
Fore
SplineSet
429 0 m 1
 429 212 429 424 429 636 c 1
 419 677 347 700 287 700 c 0
 188 700 170 644 170 538 c 2
 170 530 l 1
 322 530 l 1
 322 496 l 1
 170 496 l 1
 173 0 l 1
 106 0 l 1
 106 496 l 1
 43 496 l 1
 43 509 l 1
 106 530 l 1
 106 548 l 2
 106 692 176 730 311 730 c 0
 365 730 417 720 453 702 c 1
 498 720 l 1
 494 34 l 1
 598 40 l 1
 598 0 l 1
 429 0 l 1
EndSplineSet
Validated: 1
LCarets2: 1 0
Ligature2: "'liga' Standard Ligatures in Latin lookup 0-1" f l
EndChar

StartChar: ffl
Encoding: 470 64260 470
Width: 924
VWidth: 0
Flags: HMW
LayerCount: 2
Fore
SplineSet
394 625 m 1
 367 650 330 702 243 702 c 0
 178 702 170 610 170 530 c 1
 387 530 l 1
 387 538 l 1
 387 548 l 2
 387 576 390 601 394 625 c 1
423 677 m 1
 456 717 513 730 592 730 c 0
 646 730 698 720 734 702 c 1
 779 720 l 1
 775 34 l 1
 879 40 l 1
 879 0 l 1
 710 0 l 1
 710 212 710 424 710 636 c 1
 700 677 628 700 568 700 c 0
 469 700 451 644 451 538 c 2
 451 530 l 1
 603 530 l 1
 603 496 l 1
 451 496 l 1
 454 0 l 1
 386 0 l 1
 386 496 l 1
 343 504 313 505 287 505 c 0
 247 505 203 500 170 496 c 1
 173 0 l 1
 106 0 l 1
 106 496 l 1
 43 496 l 1
 43 509 l 1
 106 530 l 1
 106 654 116 730 243 730 c 0
 341 730 393 695 423 677 c 1
EndSplineSet
Validated: 1
LCarets2: 2 0 0
Ligature2: "'liga' Standard Ligatures in Latin lookup 0-1" f f l
EndChar

StartChar: fj
Encoding: 471 -1 471
Width: 580
VWidth: 0
Flags: HMW
LayerCount: 2
Fore
SplineSet
329 520 m 17
 329 486 l 1
 186 486 l 1
 173 0 l 1
 106 0 l 1
 106 486 l 1
 43 486 l 1
 43 499 l 1
 106 520 l 1
 106 538 l 2
 106 586 111 630 124 667 c 0
 140 712 180 730 243 730 c 0
 328 730 367 724 472 672 c 0
 488 664 494 651 494 637 c 0
 494 615 476 592 451 592 c 0
 408 592 388 666 362 680 c 0
 331 696 296 704 267 704 c 0
 232 704 204 694 192 673 c 0
 187 663 186 576 186 538 c 0
 186 527 186 520 186 520 c 1
 186 520 273 520 329 520 c 17
427 -58 m 2
 427 345 l 1
 410 498 l 1
 492 522 l 1
 495 345 l 1
 493 -64 l 2
 493 -174 425 -200 313 -200 c 1
 313 -154 l 1
 314 -154 314 -154 315 -154 c 0
 332 -154 348 -159 364 -159 c 0
 372 -159 381 -158 389 -154 c 0
 414 -144 427 -105 427 -58 c 2
EndSplineSet
Validated: 1
LCarets2: 1 0
Ligature2: "'liga' Standard Ligatures in Latin lookup 0-1" f j
EndChar

StartChar: ffi
Encoding: 472 64259 472
Width: 850
VWidth: 0
Flags: HMW
LayerCount: 2
Fore
SplineSet
768 530 m 1
 768 359 768 174 768 0 c 1
 699 0 l 1
 699 507 l 2
 699 514 699 530 699 530 c 2
 700 530 768 530 768 530 c 1
387 538 m 2
 387 567 389 598 394 625 c 1
 367 650 330 702 243 702 c 0
 178 702 170 610 170 530 c 1
 387 530 l 1
 387 538 l 2
421 678 m 1
 450 716 502 730 583 730 c 0
 616 730 775 720 775 637 c 0
 775 615 757 592 732 592 c 0
 689 592 667 663 643 680 c 0
 625 693 596 703 563 703 c 0
 496 703 451 678 451 588 c 2
 451 538 l 1
 451 530 l 1
 451 530 554 530 610 530 c 1
 610 496 l 1
 557 496 504 496 451 496 c 1
 454 0 l 1
 387 0 l 1
 386 496 l 1
 343 504 313 505 287 505 c 0
 247 505 203 500 170 496 c 1
 173 0 l 1
 106 0 l 1
 106 496 l 1
 43 496 l 1
 43 509 l 1
 106 530 l 1
 106 654 116 730 243 730 c 0
 330 730 388 698 421 678 c 1
EndSplineSet
Validated: 1
LCarets2: 2 0 0
Ligature2: "'liga' Standard Ligatures in Latin lookup 0-1" f f i
EndChar

StartChar: ffj
Encoding: 473 -1 473
Width: 861
VWidth: 0
Flags: HMW
LayerCount: 2
Fore
SplineSet
387 538 m 2
 387 567 389 598 394 625 c 1
 367 650 330 702 243 702 c 0
 178 702 170 610 170 530 c 1
 387 530 l 1
 387 538 l 2
421 678 m 1
 450 716 502 730 583 730 c 0
 616 730 775 720 775 637 c 0
 775 615 757 592 732 592 c 0
 689 592 667 663 643 680 c 0
 625 693 596 703 563 703 c 0
 496 703 451 678 451 588 c 2
 451 538 l 1
 451 530 l 1
 451 530 554 530 610 530 c 1
 610 496 l 1
 557 496 504 496 451 496 c 1
 454 0 l 1
 387 0 l 1
 386 496 l 1
 343 504 313 505 287 505 c 0
 247 505 203 500 170 496 c 1
 173 0 l 1
 106 0 l 1
 106 496 l 1
 43 496 l 1
 43 509 l 1
 106 530 l 1
 106 654 116 730 243 730 c 0
 330 730 388 698 421 678 c 1
708 -58 m 2
 708 345 l 1
 691 498 l 1
 773 522 l 1
 776 345 l 1
 774 -64 l 2
 774 -174 706 -200 594 -200 c 1
 594 -154 l 1
 595 -154 595 -154 596 -154 c 0
 613 -154 629 -159 645 -159 c 0
 653 -159 662 -158 670 -154 c 0
 695 -144 708 -105 708 -58 c 2
EndSplineSet
Validated: 1
LCarets2: 2 0 0
Ligature2: "'liga' Standard Ligatures in Latin lookup 0-1" f f j
EndChar

StartChar: NameMe.474
Encoding: 474 -1 474
Width: 824
VWidth: 0
Flags: HMW
LayerCount: 2
Fore
SplineSet
700 0 m 1
 565 260 l 1
 500 180 l 1
 509 0 l 1
 429 0 l 1
 429 212 429 424 429 636 c 1
 419 677 347 700 287 700 c 0
 174 700 170 651 170 530 c 1
 313 530 l 1
 313 496 l 1
 170 496 l 1
 173 0 l 1
 106 0 l 1
 106 496 l 1
 43 496 l 1
 43 509 l 1
 106 530 l 1
 106 686 165 730 311 730 c 0
 362 730 411 721 447 705 c 1
 500 720 l 1
 500 262 l 1
 719 530 l 1
 799 530 l 1
 589 292 l 1
 804 0 l 1
 700 0 l 1
EndSplineSet
Validated: 1
EndChar

StartChar: O.min
Encoding: 475 -1 475
Width: 577
VWidth: 0
Flags: W
HStem: 155 26<242.083 336.867> 550 25<233.725 334.445>
VStem: 40 99<277.169 449.057> 433 104<275.642 451.71>
LayerCount: 2
Fore
SplineSet
537 360 m 0
 537 226 408 155 284 155 c 0
 137 155 40 255 40 363 c 0
 40 474 140 575 287 575 c 0
 411 575 537 498 537 360 c 0
284 550 m 0
 193 550 139 453 139 364 c 0
 139 258 220 181 290 181 c 0
 357 181 433 254 433 359 c 0
 433 450 376 550 284 550 c 0
EndSplineSet
Validated: 1
Substitution2: "Single Substitution in Latin lookup 0-1" O
EndChar
